<?xml version="1.0" standalone="no"?>
<!DOCTYPE svg PUBLIC "-//W3C//DTD SVG 20010904//EN"
 "http://www.w3.org/TR/2001/REC-SVG-20010904/DTD/svg10.dtd">
<svg version="1.0" xmlns="http://www.w3.org/2000/svg"
 width="1200.000000pt" height="1200.000000pt" viewBox="0 0 1200.000000 1200.000000"
 preserveAspectRatio="xMidYMid meet">

<g transform="translate(0.000000,1200.000000) scale(0.100000,-0.100000)"
fill="#000000" stroke="none">
<path d="M5400 9600 l0 -360 60 0 60 0 0 240 0 240 60 0 60 0 0 -60 0 -60 60
0 60 0 0 -60 0 -60 60 0 60 0 0 -60 0 -60 -60 0 -60 0 0 -180 0 -180 -120 0
-120 0 0 60 0 60 -180 0 -180 0 0 -60 0 -60 -60 0 -60 0 0 -180 0 -180 -120 0
-120 0 0 60 0 60 60 0 60 0 0 180 0 180 -60 0 -60 0 0 60 0 60 -60 0 -60 0 0
60 0 60 -60 0 -60 0 0 120 0 120 -60 0 -60 0 0 -240 0 -240 60 0 60 0 0 -60 0
-60 -240 0 -240 0 0 60 0 60 -180 0 -180 0 0 -60 0 -60 120 0 120 0 0 -60 0
-60 120 0 120 0 0 -60 0 -60 60 0 60 0 0 -60 0 -60 60 0 60 0 0 -60 0 -60 60
0 60 0 0 -60 0 -60 60 0 60 0 0 60 0 60 60 0 60 0 0 -120 0 -120 -180 0 -180
0 0 60 0 60 -120 0 -120 0 0 60 0 60 -60 0 -60 0 0 120 0 120 -60 0 -60 0 0
-180 0 -180 60 0 60 0 0 -60 0 -60 60 0 60 0 0 -60 0 -60 60 0 60 0 0 -60 0
-60 60 0 60 0 0 -60 0 -60 -240 0 -240 0 0 -60 0 -60 180 0 180 0 0 -60 0 -60
120 0 120 0 0 -60 0 -60 60 0 60 0 0 -60 0 -60 60 0 60 0 0 -60 0 -60 60 0 60
0 0 -60 0 -60 120 0 120 0 0 -60 0 -60 -240 0 -240 0 0 -60 0 -60 -60 0 -60 0
0 -60 0 -60 -60 0 -60 0 0 -180 0 -180 -60 0 -60 0 0 -120 0 -120 -60 0 -60 0
0 -480 0 -480 60 0 60 0 0 -60 0 -60 60 0 60 0 0 -60 0 -60 60 0 60 0 0 -120
0 -120 -60 0 -60 0 0 -240 0 -240 60 0 60 0 0 -180 0 -180 -60 0 -60 0 0 -180
0 -180 -60 0 -60 0 0 -120 0 -120 240 0 240 0 0 180 0 180 60 0 60 0 0 120 0
120 60 0 60 0 0 60 0 60 120 0 120 0 0 60 0 60 120 0 120 0 0 60 0 60 60 0 60
0 0 180 0 180 60 0 60 0 0 -120 0 -120 60 0 60 0 0 -60 0 -60 60 0 60 0 0
-120 0 -120 60 0 60 0 0 -300 0 -300 360 0 360 0 0 120 0 120 -60 0 -60 0 0
60 0 60 -120 0 -120 0 0 120 0 120 60 0 60 0 0 120 0 120 60 0 60 0 0 60 0 60
60 0 60 0 0 240 0 240 -60 0 -60 0 0 60 0 60 -60 0 -60 0 0 60 0 60 60 0 60 0
0 60 0 60 60 0 60 0 0 540 0 540 -60 0 -60 0 0 180 0 180 -60 0 -60 0 0 120 0
120 -60 0 -60 0 0 60 0 60 -120 0 -120 0 0 60 0 60 60 0 60 0 0 120 0 120 60
0 60 0 0 180 0 180 60 0 60 0 0 -60 0 -60 60 0 60 0 0 -60 0 -60 60 0 60 0 0
-60 0 -60 60 0 60 0 0 240 0 240 360 0 360 0 0 60 0 60 -60 0 -60 0 0 60 0 60
-60 0 -60 0 0 60 0 60 -60 0 -60 0 0 60 0 60 60 0 60 0 0 60 0 60 60 0 60 0 0
480 0 480 -60 0 -60 0 0 -120 0 -120 -60 0 -60 0 0 -60 0 -60 -60 0 -60 0 0
-60 0 -60 -120 0 -120 0 0 60 0 60 60 0 60 0 0 120 0 120 60 0 60 0 0 60 0 60
60 0 60 0 0 60 0 60 60 0 60 0 0 60 0 60 120 0 120 0 0 60 0 60 -300 0 -300 0
0 -60 0 -60 -120 0 -120 0 0 -60 0 -60 -60 0 -60 0 0 -60 0 -60 120 0 120 0 0
-60 0 -60 -60 0 -60 0 0 -60 0 -60 -60 0 -60 0 0 60 0 60 -120 0 -120 0 0 60
0 60 60 0 60 0 0 60 0 60 -60 0 -60 0 0 -60 0 -60 -60 0 -60 0 0 -120 0 -120
-60 0 -60 0 0 60 0 60 -60 0 -60 0 0 60 0 60 -60 0 -60 0 0 60 0 60 -60 0 -60
0 0 60 0 60 -60 0 -60 0 0 60 0 60 -60 0 -60 0 0 60 0 60 -120 0 -120 0 0
-360z m600 -360 l0 -120 60 0 60 0 0 60 0 60 60 0 60 0 0 -60 0 -60 -60 0 -60
0 0 -60 0 -60 -60 0 -60 0 0 -60 0 -60 -60 0 -60 0 0 -120 0 -120 -60 0 -60 0
0 -60 0 -60 -60 0 -60 0 0 -120 0 -120 60 0 60 0 0 -60 0 -60 60 0 60 0 0 -60
0 -60 60 0 60 0 0 -120 0 -120 60 0 60 0 0 240 0 240 120 0 120 0 0 -60 0 -60
60 0 60 0 0 -60 0 -60 60 0 60 0 0 -60 0 -60 60 0 60 0 0 -60 0 -60 -60 0 -60
0 0 60 0 60 -60 0 -60 0 0 60 0 60 -120 0 -120 0 0 -120 0 -120 60 0 60 0 0
-180 0 -180 -60 0 -60 0 0 -120 0 -120 -60 0 -60 0 0 -60 0 -60 -60 0 -60 0 0
-60 0 -60 -240 0 -240 0 0 60 0 60 -60 0 -60 0 0 60 0 60 -60 0 -60 0 0 300 0
300 -60 0 -60 0 0 60 0 60 -60 0 -60 0 0 60 0 60 -60 0 -60 0 0 180 0 180 60
0 60 0 0 60 0 60 60 0 60 0 0 60 0 60 120 0 120 0 0 -60 0 -60 -120 0 -120 0
0 -60 0 -60 -60 0 -60 0 0 -180 0 -180 60 0 60 0 0 -60 0 -60 60 0 60 0 0 180
0 180 120 0 120 0 0 120 0 120 60 0 60 0 0 60 0 60 60 0 60 0 0 120 0 120 60
0 60 0 0 240 0 240 60 0 60 0 0 -120z m720 -180 l0 -180 -60 0 -60 0 0 -240 0
-240 60 0 60 0 0 -60 0 -60 120 0 120 0 0 60 0 60 60 0 60 0 0 -60 0 -60 -60
0 -60 0 0 -180 0 -180 -60 0 -60 0 0 120 0 120 -60 0 -60 0 0 60 0 60 -60 0
-60 0 0 60 0 60 -180 0 -180 0 0 60 0 60 120 0 120 0 0 180 0 180 60 0 60 0 0
180 0 180 60 0 60 0 0 -180z m720 -240 l0 -300 -60 0 -60 0 0 -60 0 -60 -60 0
-60 0 0 60 0 60 60 0 60 0 0 120 0 120 -60 0 -60 0 0 -60 0 -60 -240 0 -240 0
0 60 0 60 60 0 60 0 0 60 0 60 180 0 180 0 0 60 0 60 60 0 60 0 0 60 0 60 60
0 60 0 0 -300z m-2760 120 l0 -60 60 0 60 0 0 -60 0 -60 -60 0 -60 0 0 60 0
60 -60 0 -60 0 0 60 0 60 60 0 60 0 0 -60z m360 -1320 l0 -60 60 0 60 0 0
-120 0 -120 -120 0 -120 0 0 180 0 180 60 0 60 0 0 -60z m-240 -720 l0 -60 60
0 60 0 0 60 0 60 120 0 120 0 0 -60 0 -60 240 0 240 0 0 -60 0 -60 120 0 120
0 0 60 0 60 240 0 240 0 0 60 0 60 60 0 60 0 0 -60 0 -60 -60 0 -60 0 0 -240
0 -240 180 0 180 0 0 -180 0 -180 -120 0 -120 0 0 60 0 60 -60 0 -60 0 0 120
0 120 -120 0 -120 0 0 -60 0 -60 60 0 60 0 0 -60 0 -60 -60 0 -60 0 0 -60 0
-60 -60 0 -60 0 0 60 0 60 60 0 60 0 0 60 0 60 -120 0 -120 0 0 -120 0 -120
-120 0 -120 0 0 60 0 60 -300 0 -300 0 0 -120 0 -120 120 0 120 0 0 -60 0 -60
-60 0 -60 0 0 -120 0 -120 -120 0 -120 0 0 -120 0 -120 -60 0 -60 0 0 -60 0
-60 -180 0 -180 0 0 60 0 60 -60 0 -60 0 0 180 0 180 240 0 240 0 0 60 0 60
-60 0 -60 0 0 120 0 120 60 0 60 0 0 60 0 60 -60 0 -60 0 0 180 0 180 120 0
120 0 0 -120 0 -120 -60 0 -60 0 0 -60 0 -60 120 0 120 0 0 120 0 120 120 0
120 0 0 60 0 60 -60 0 -60 0 0 120 0 120 -60 0 -60 0 0 -60 0 -60 -120 0 -120
0 0 120 0 120 -60 0 -60 0 0 -120 0 -120 -60 0 -60 0 0 120 0 120 60 0 60 0 0
60 0 60 60 0 60 0 0 -60z m1800 -300 l0 -120 -60 0 -60 0 0 120 0 120 60 0 60
0 0 -120z m-2040 -420 l0 -300 -120 0 -120 0 0 180 0 180 60 0 60 0 0 120 0
120 60 0 60 0 0 -300z m1800 -360 l0 -60 180 0 180 0 0 -240 0 -240 -120 0
-120 0 0 60 0 60 60 0 60 0 0 120 0 120 -120 0 -120 0 0 60 0 60 -60 0 -60 0
0 60 0 60 60 0 60 0 0 -60z m-1320 -780 l0 -120 -60 0 -60 0 0 120 0 120 60 0
60 0 0 -120z m1440 -60 l0 -60 60 0 60 0 0 -60 0 -60 -60 0 -60 0 0 60 0 60
-60 0 -60 0 0 60 0 60 60 0 60 0 0 -60z m-120 -1080 l0 -60 -60 0 -60 0 0 60
0 60 60 0 60 0 0 -60z m-1560 -120 l0 -60 -120 0 -120 0 0 60 0 60 120 0 120
0 0 -60z"/>
<path d="M5400 8040 l0 -120 -60 0 -60 0 0 -60 0 -60 60 0 60 0 0 -180 0 -180
60 0 60 0 0 120 0 120 60 0 60 0 0 -60 0 -60 60 0 60 0 0 -60 0 -60 120 0 120
0 0 60 0 60 60 0 60 0 0 60 0 60 -60 0 -60 0 0 60 0 60 -60 0 -60 0 0 60 0 60
-60 0 -60 0 0 60 0 60 -60 0 -60 0 0 60 0 60 -120 0 -120 0 0 -120z m240 -180
l0 -60 60 0 60 0 0 -60 0 -60 60 0 60 0 0 -60 0 -60 -60 0 -60 0 0 60 0 60
-60 0 -60 0 0 60 0 60 -120 0 -120 0 0 60 0 60 120 0 120 0 0 -60z"/>
<path d="M5880 6600 l0 -120 -120 0 -120 0 0 -60 0 -60 -180 0 -180 0 0 -60 0
-60 180 0 180 0 0 60 0 60 240 0 240 0 0 60 0 60 -60 0 -60 0 0 120 0 120 -60
0 -60 0 0 -120z"/>
<path d="M4800 5580 l0 -60 -120 0 -120 0 0 -120 0 -120 120 0 120 0 0 120 0
120 60 0 60 0 0 60 0 60 -60 0 -60 0 0 -60z"/>
</g>
</svg>
