<?xml version="1.0" encoding="UTF-8"?>
<!DOCTYPE svg PUBLIC "-//W3C//DTD SVG 1.1//EN" "http://www.w3.org/Graphics/SVG/1.1/DTD/svg11.dtd">
<svg xmlns="http://www.w3.org/2000/svg" version="1.1" width="1200px" height="1200px" style="shape-rendering:geometricPrecision; text-rendering:geometricPrecision; image-rendering:optimizeQuality; fill-rule:evenodd; clip-rule:evenodd" xmlns:xlink="http://www.w3.org/1999/xlink">
<g><path style="opacity:1" fill="#00afff" d="M 563.5,203.5 C 555.5,203.5 547.5,203.5 539.5,203.5C 539.5,227.5 539.5,251.5 539.5,275.5C 531.5,275.5 523.5,275.5 515.5,275.5C 515.5,271.5 515.5,267.5 515.5,263.5C 519.5,263.5 523.5,263.5 527.5,263.5C 527.5,239.5 527.5,215.5 527.5,191.5C 539.5,191.5 551.5,191.5 563.5,191.5C 563.5,195.5 563.5,199.5 563.5,203.5 Z"/></g>
<g><path style="opacity:1" fill="#000000" d="M 563.5,203.5 C 563.5,207.5 563.5,211.5 563.5,215.5C 567.5,215.5 571.5,215.5 575.5,215.5C 575.5,219.5 575.5,223.5 575.5,227.5C 579.5,227.5 583.5,227.5 587.5,227.5C 587.5,231.5 587.5,235.5 587.5,239.5C 591.5,239.5 595.5,239.5 599.5,239.5C 599.5,243.5 599.5,247.5 599.5,251.5C 603.5,251.5 607.5,251.5 611.5,251.5C 611.5,255.5 611.5,259.5 611.5,263.5C 615.5,263.5 619.5,263.5 623.5,263.5C 623.5,267.5 623.5,271.5 623.5,275.5C 619.5,275.5 615.5,275.5 611.5,275.5C 611.5,279.5 611.5,283.5 611.5,287.5C 607.5,287.5 603.5,287.5 599.5,287.5C 599.5,279.5 599.5,271.5 599.5,263.5C 595.5,263.5 591.5,263.5 587.5,263.5C 587.5,259.5 587.5,255.5 587.5,251.5C 583.5,251.5 579.5,251.5 575.5,251.5C 575.5,247.5 575.5,243.5 575.5,239.5C 571.5,239.5 567.5,239.5 563.5,239.5C 563.5,235.5 563.5,231.5 563.5,227.5C 559.5,227.5 555.5,227.5 551.5,227.5C 551.5,243.5 551.5,259.5 551.5,275.5C 547.5,275.5 543.5,275.5 539.5,275.5C 539.5,251.5 539.5,227.5 539.5,203.5C 547.5,203.5 555.5,203.5 563.5,203.5 Z"/></g>
<g><path style="opacity:1" fill="#00afff" d="M 563.5,203.5 C 567.5,203.5 571.5,203.5 575.5,203.5C 575.5,207.5 575.5,211.5 575.5,215.5C 575.5,211.5 575.5,207.5 575.5,203.5C 571.5,203.5 567.5,203.5 563.5,203.5 Z"/></g>
<g><path style="opacity:1" fill="#00afff" d="M 767.5,215.5 C 747.5,215.5 727.5,215.5 707.5,215.5C 695.5,215.5 683.5,215.5 671.5,215.5C 671.5,211.5 671.5,207.5 671.5,203.5C 703.5,203.5 735.5,203.5 767.5,203.5C 767.5,207.5 767.5,211.5 767.5,215.5 Z"/></g>
<g><path style="opacity:1" fill="#00afff" d="M 575.5,215.5 C 579.5,215.5 583.5,215.5 587.5,215.5C 587.5,219.5 587.5,223.5 587.5,227.5C 587.5,223.5 587.5,219.5 587.5,215.5C 583.5,215.5 579.5,215.5 575.5,215.5 Z"/></g>
<g><path style="opacity:1" fill="#00afff" d="M 671.5,215.5 C 671.5,219.5 671.5,223.5 671.5,227.5C 667.5,227.5 663.5,227.5 659.5,227.5C 659.5,231.5 659.5,235.5 659.5,239.5C 655.5,239.5 651.5,239.5 647.5,239.5C 647.5,231.5 647.5,223.5 647.5,215.5C 655.5,215.5 663.5,215.5 671.5,215.5 Z"/></g>
<g><path style="opacity:1" fill="#fefffe" d="M 671.5,215.5 C 683.5,215.5 695.5,215.5 707.5,215.5C 707.5,219.5 707.5,223.5 707.5,227.5C 699.5,227.5 691.5,227.5 683.5,227.5C 683.5,231.5 683.5,235.5 683.5,239.5C 679.5,239.5 675.5,239.5 671.5,239.5C 671.5,243.5 671.5,247.5 671.5,251.5C 679.5,251.5 687.5,251.5 695.5,251.5C 695.5,255.5 695.5,259.5 695.5,263.5C 691.5,263.5 687.5,263.5 683.5,263.5C 683.5,267.5 683.5,271.5 683.5,275.5C 679.5,275.5 675.5,275.5 671.5,275.5C 671.5,271.5 671.5,267.5 671.5,263.5C 663.5,263.5 655.5,263.5 647.5,263.5C 647.5,259.5 647.5,255.5 647.5,251.5C 651.5,251.5 655.5,251.5 659.5,251.5C 659.5,247.5 659.5,243.5 659.5,239.5C 659.5,235.5 659.5,231.5 659.5,227.5C 663.5,227.5 667.5,227.5 671.5,227.5C 671.5,223.5 671.5,219.5 671.5,215.5 Z"/></g>
<g><path style="opacity:1" fill="#000000" d="M 707.5,215.5 C 727.5,215.5 747.5,215.5 767.5,215.5C 767.5,219.5 767.5,223.5 767.5,227.5C 759.5,227.5 751.5,227.5 743.5,227.5C 743.5,231.5 743.5,235.5 743.5,239.5C 739.5,239.5 735.5,239.5 731.5,239.5C 731.5,243.5 731.5,247.5 731.5,251.5C 727.5,251.5 723.5,251.5 719.5,251.5C 719.5,255.5 719.5,259.5 719.5,263.5C 715.5,263.5 711.5,263.5 707.5,263.5C 707.5,271.5 707.5,279.5 707.5,287.5C 703.5,287.5 699.5,287.5 695.5,287.5C 695.5,291.5 695.5,295.5 695.5,299.5C 703.5,299.5 711.5,299.5 719.5,299.5C 719.5,303.5 719.5,307.5 719.5,311.5C 707.5,311.5 695.5,311.5 683.5,311.5C 683.5,315.5 683.5,319.5 683.5,323.5C 679.5,323.5 675.5,323.5 671.5,323.5C 671.5,327.5 671.5,331.5 671.5,335.5C 687.5,335.5 703.5,335.5 719.5,335.5C 719.5,331.5 719.5,327.5 719.5,323.5C 723.5,323.5 727.5,323.5 731.5,323.5C 731.5,331.5 731.5,339.5 731.5,347.5C 727.5,347.5 723.5,347.5 719.5,347.5C 719.5,351.5 719.5,355.5 719.5,359.5C 723.5,359.5 727.5,359.5 731.5,359.5C 731.5,363.5 731.5,367.5 731.5,371.5C 735.5,371.5 739.5,371.5 743.5,371.5C 743.5,375.5 743.5,379.5 743.5,383.5C 747.5,383.5 751.5,383.5 755.5,383.5C 755.5,387.5 755.5,391.5 755.5,395.5C 759.5,395.5 763.5,395.5 767.5,395.5C 767.5,399.5 767.5,403.5 767.5,407.5C 743.5,407.5 719.5,407.5 695.5,407.5C 695.5,403.5 695.5,399.5 695.5,395.5C 695.5,391.5 695.5,387.5 695.5,383.5C 695.5,379.5 695.5,375.5 695.5,371.5C 691.5,371.5 687.5,371.5 683.5,371.5C 679.5,371.5 675.5,371.5 671.5,371.5C 671.5,367.5 671.5,363.5 671.5,359.5C 667.5,359.5 663.5,359.5 659.5,359.5C 659.5,343.5 659.5,327.5 659.5,311.5C 663.5,311.5 667.5,311.5 671.5,311.5C 671.5,299.5 671.5,287.5 671.5,275.5C 675.5,275.5 679.5,275.5 683.5,275.5C 683.5,271.5 683.5,267.5 683.5,263.5C 687.5,263.5 691.5,263.5 695.5,263.5C 695.5,259.5 695.5,255.5 695.5,251.5C 687.5,251.5 679.5,251.5 671.5,251.5C 671.5,247.5 671.5,243.5 671.5,239.5C 675.5,239.5 679.5,239.5 683.5,239.5C 683.5,235.5 683.5,231.5 683.5,227.5C 691.5,227.5 699.5,227.5 707.5,227.5C 707.5,223.5 707.5,219.5 707.5,215.5 Z"/></g>
<g><path style="opacity:1" fill="#00afff" d="M 767.5,215.5 C 771.5,215.5 775.5,215.5 779.5,215.5C 779.5,219.5 779.5,223.5 779.5,227.5C 775.5,227.5 771.5,227.5 767.5,227.5C 767.5,223.5 767.5,219.5 767.5,215.5 Z"/></g>
<g><path style="opacity:1" fill="#00afff" d="M 455.5,239.5 C 451.5,239.5 447.5,239.5 443.5,239.5C 443.5,235.5 443.5,231.5 443.5,227.5C 447.5,227.5 451.5,227.5 455.5,227.5C 455.5,231.5 455.5,235.5 455.5,239.5 Z"/></g>
<g><path style="opacity:1" fill="#fefffe" d="M 587.5,263.5 C 583.5,263.5 579.5,263.5 575.5,263.5C 575.5,275.5 575.5,287.5 575.5,299.5C 567.5,299.5 559.5,299.5 551.5,299.5C 551.5,295.5 551.5,291.5 551.5,287.5C 539.5,287.5 527.5,287.5 515.5,287.5C 515.5,283.5 515.5,279.5 515.5,275.5C 523.5,275.5 531.5,275.5 539.5,275.5C 543.5,275.5 547.5,275.5 551.5,275.5C 551.5,259.5 551.5,243.5 551.5,227.5C 555.5,227.5 559.5,227.5 563.5,227.5C 563.5,231.5 563.5,235.5 563.5,239.5C 567.5,239.5 571.5,239.5 575.5,239.5C 575.5,243.5 575.5,247.5 575.5,251.5C 579.5,251.5 583.5,251.5 587.5,251.5C 587.5,255.5 587.5,259.5 587.5,263.5 Z"/></g>
<g><path style="opacity:1" fill="#00afff" d="M 587.5,227.5 C 591.5,227.5 595.5,227.5 599.5,227.5C 599.5,231.5 599.5,235.5 599.5,239.5C 599.5,235.5 599.5,231.5 599.5,227.5C 595.5,227.5 591.5,227.5 587.5,227.5 Z"/></g>
<g><path style="opacity:1" fill="#00afff" d="M 767.5,227.5 C 767.5,231.5 767.5,235.5 767.5,239.5C 763.5,239.5 759.5,239.5 755.5,239.5C 755.5,243.5 755.5,247.5 755.5,251.5C 751.5,251.5 747.5,251.5 743.5,251.5C 743.5,259.5 743.5,267.5 743.5,275.5C 739.5,275.5 735.5,275.5 731.5,275.5C 731.5,279.5 731.5,283.5 731.5,287.5C 727.5,287.5 723.5,287.5 719.5,287.5C 719.5,291.5 719.5,295.5 719.5,299.5C 711.5,299.5 703.5,299.5 695.5,299.5C 695.5,295.5 695.5,291.5 695.5,287.5C 699.5,287.5 703.5,287.5 707.5,287.5C 707.5,279.5 707.5,271.5 707.5,263.5C 711.5,263.5 715.5,263.5 719.5,263.5C 719.5,259.5 719.5,255.5 719.5,251.5C 723.5,251.5 727.5,251.5 731.5,251.5C 731.5,247.5 731.5,243.5 731.5,239.5C 735.5,239.5 739.5,239.5 743.5,239.5C 743.5,235.5 743.5,231.5 743.5,227.5C 751.5,227.5 759.5,227.5 767.5,227.5 Z"/></g>
<g><path style="opacity:1" fill="#00afff" d="M 443.5,239.5 C 443.5,255.5 443.5,271.5 443.5,287.5C 439.5,287.5 435.5,287.5 431.5,287.5C 431.5,271.5 431.5,255.5 431.5,239.5C 435.5,239.5 439.5,239.5 443.5,239.5 Z"/></g>
<g><path style="opacity:1" fill="#000000" d="M 443.5,239.5 C 447.5,239.5 451.5,239.5 455.5,239.5C 455.5,247.5 455.5,255.5 455.5,263.5C 459.5,263.5 463.5,263.5 467.5,263.5C 467.5,267.5 467.5,271.5 467.5,275.5C 471.5,275.5 475.5,275.5 479.5,275.5C 479.5,279.5 479.5,283.5 479.5,287.5C 483.5,287.5 487.5,287.5 491.5,287.5C 491.5,291.5 491.5,295.5 491.5,299.5C 491.5,307.5 491.5,315.5 491.5,323.5C 487.5,323.5 483.5,323.5 479.5,323.5C 479.5,319.5 479.5,315.5 479.5,311.5C 475.5,311.5 471.5,311.5 467.5,311.5C 467.5,307.5 467.5,303.5 467.5,299.5C 463.5,299.5 459.5,299.5 455.5,299.5C 455.5,295.5 455.5,291.5 455.5,287.5C 451.5,287.5 447.5,287.5 443.5,287.5C 443.5,271.5 443.5,255.5 443.5,239.5 Z"/></g>
<g><path style="opacity:1" fill="#00afff" d="M 455.5,239.5 C 459.5,239.5 463.5,239.5 467.5,239.5C 467.5,247.5 467.5,255.5 467.5,263.5C 463.5,263.5 459.5,263.5 455.5,263.5C 455.5,255.5 455.5,247.5 455.5,239.5 Z"/></g>
<g><path style="opacity:1" fill="#00afff" d="M 599.5,239.5 C 603.5,239.5 607.5,239.5 611.5,239.5C 611.5,243.5 611.5,247.5 611.5,251.5C 611.5,247.5 611.5,243.5 611.5,239.5C 607.5,239.5 603.5,239.5 599.5,239.5 Z"/></g>
<g><path style="opacity:1" fill="#00afff" d="M 647.5,239.5 C 647.5,243.5 647.5,247.5 647.5,251.5C 643.5,251.5 639.5,251.5 635.5,251.5C 635.5,247.5 635.5,243.5 635.5,239.5C 639.5,239.5 643.5,239.5 647.5,239.5 Z"/></g>
<g><path style="opacity:1" fill="#000000" d="M 647.5,239.5 C 651.5,239.5 655.5,239.5 659.5,239.5C 659.5,243.5 659.5,247.5 659.5,251.5C 655.5,251.5 651.5,251.5 647.5,251.5C 647.5,247.5 647.5,243.5 647.5,239.5 Z"/></g>
<g><path style="opacity:1" fill="#00afff" d="M 611.5,251.5 C 619.5,251.5 627.5,251.5 635.5,251.5C 635.5,255.5 635.5,259.5 635.5,263.5C 631.5,263.5 627.5,263.5 623.5,263.5C 619.5,263.5 615.5,263.5 611.5,263.5C 611.5,259.5 611.5,255.5 611.5,251.5 Z"/></g>
<g><path style="opacity:1" fill="#000000" d="M 635.5,251.5 C 639.5,251.5 643.5,251.5 647.5,251.5C 647.5,255.5 647.5,259.5 647.5,263.5C 655.5,263.5 663.5,263.5 671.5,263.5C 671.5,267.5 671.5,271.5 671.5,275.5C 667.5,275.5 663.5,275.5 659.5,275.5C 659.5,287.5 659.5,299.5 659.5,311.5C 655.5,311.5 651.5,311.5 647.5,311.5C 647.5,323.5 647.5,335.5 647.5,347.5C 639.5,347.5 631.5,347.5 623.5,347.5C 623.5,351.5 623.5,355.5 623.5,359.5C 635.5,359.5 647.5,359.5 659.5,359.5C 663.5,359.5 667.5,359.5 671.5,359.5C 671.5,363.5 671.5,367.5 671.5,371.5C 671.5,375.5 671.5,379.5 671.5,383.5C 675.5,383.5 679.5,383.5 683.5,383.5C 683.5,387.5 683.5,391.5 683.5,395.5C 683.5,399.5 683.5,403.5 683.5,407.5C 687.5,407.5 691.5,407.5 695.5,407.5C 695.5,423.5 695.5,439.5 695.5,455.5C 691.5,455.5 687.5,455.5 683.5,455.5C 683.5,451.5 683.5,447.5 683.5,443.5C 679.5,443.5 675.5,443.5 671.5,443.5C 671.5,439.5 671.5,435.5 671.5,431.5C 667.5,431.5 663.5,431.5 659.5,431.5C 659.5,427.5 659.5,423.5 659.5,419.5C 663.5,419.5 667.5,419.5 671.5,419.5C 671.5,415.5 671.5,411.5 671.5,407.5C 667.5,407.5 663.5,407.5 659.5,407.5C 659.5,403.5 659.5,399.5 659.5,395.5C 655.5,395.5 651.5,395.5 647.5,395.5C 647.5,391.5 647.5,387.5 647.5,383.5C 643.5,383.5 639.5,383.5 635.5,383.5C 635.5,379.5 635.5,375.5 635.5,371.5C 627.5,371.5 619.5,371.5 611.5,371.5C 611.5,387.5 611.5,403.5 611.5,419.5C 607.5,419.5 603.5,419.5 599.5,419.5C 599.5,411.5 599.5,403.5 599.5,395.5C 595.5,395.5 591.5,395.5 587.5,395.5C 587.5,391.5 587.5,387.5 587.5,383.5C 583.5,383.5 579.5,383.5 575.5,383.5C 575.5,379.5 575.5,375.5 575.5,371.5C 571.5,371.5 567.5,371.5 563.5,371.5C 563.5,363.5 563.5,355.5 563.5,347.5C 567.5,347.5 571.5,347.5 575.5,347.5C 575.5,343.5 575.5,339.5 575.5,335.5C 579.5,335.5 583.5,335.5 587.5,335.5C 587.5,327.5 587.5,319.5 587.5,311.5C 591.5,311.5 595.5,311.5 599.5,311.5C 599.5,307.5 599.5,303.5 599.5,299.5C 603.5,299.5 607.5,299.5 611.5,299.5C 611.5,295.5 611.5,291.5 611.5,287.5C 615.5,287.5 619.5,287.5 623.5,287.5C 623.5,283.5 623.5,279.5 623.5,275.5C 627.5,275.5 631.5,275.5 635.5,275.5C 635.5,271.5 635.5,267.5 635.5,263.5C 635.5,259.5 635.5,255.5 635.5,251.5 Z"/></g>
<g><path style="opacity:1" fill="#000000" d="M 755.5,251.5 C 755.5,283.5 755.5,315.5 755.5,347.5C 751.5,347.5 747.5,347.5 743.5,347.5C 743.5,339.5 743.5,331.5 743.5,323.5C 743.5,319.5 743.5,315.5 743.5,311.5C 743.5,307.5 743.5,303.5 743.5,299.5C 743.5,295.5 743.5,291.5 743.5,287.5C 739.5,287.5 735.5,287.5 731.5,287.5C 731.5,283.5 731.5,279.5 731.5,275.5C 735.5,275.5 739.5,275.5 743.5,275.5C 743.5,267.5 743.5,259.5 743.5,251.5C 747.5,251.5 751.5,251.5 755.5,251.5 Z"/></g>
<g><path style="opacity:1" fill="#00afff" d="M 755.5,251.5 C 759.5,251.5 763.5,251.5 767.5,251.5C 767.5,283.5 767.5,315.5 767.5,347.5C 763.5,347.5 759.5,347.5 755.5,347.5C 755.5,315.5 755.5,283.5 755.5,251.5 Z"/></g>
<g><path style="opacity:1" fill="#00afff" d="M 467.5,263.5 C 471.5,263.5 475.5,263.5 479.5,263.5C 479.5,267.5 479.5,271.5 479.5,275.5C 479.5,271.5 479.5,267.5 479.5,263.5C 475.5,263.5 471.5,263.5 467.5,263.5 Z"/></g>
<g><path style="opacity:1" fill="#000000" d="M 587.5,263.5 C 587.5,279.5 587.5,295.5 587.5,311.5C 583.5,311.5 579.5,311.5 575.5,311.5C 575.5,319.5 575.5,327.5 575.5,335.5C 571.5,335.5 567.5,335.5 563.5,335.5C 563.5,339.5 563.5,343.5 563.5,347.5C 559.5,347.5 555.5,347.5 551.5,347.5C 551.5,355.5 551.5,363.5 551.5,371.5C 543.5,371.5 535.5,371.5 527.5,371.5C 527.5,383.5 527.5,395.5 527.5,407.5C 523.5,407.5 519.5,407.5 515.5,407.5C 515.5,411.5 515.5,415.5 515.5,419.5C 519.5,419.5 523.5,419.5 527.5,419.5C 527.5,423.5 527.5,427.5 527.5,431.5C 527.5,439.5 527.5,447.5 527.5,455.5C 523.5,455.5 519.5,455.5 515.5,455.5C 515.5,451.5 515.5,447.5 515.5,443.5C 511.5,443.5 507.5,443.5 503.5,443.5C 503.5,439.5 503.5,435.5 503.5,431.5C 499.5,431.5 495.5,431.5 491.5,431.5C 491.5,443.5 491.5,455.5 491.5,467.5C 487.5,467.5 483.5,467.5 479.5,467.5C 479.5,463.5 479.5,459.5 479.5,455.5C 475.5,455.5 471.5,455.5 467.5,455.5C 467.5,451.5 467.5,447.5 467.5,443.5C 463.5,443.5 459.5,443.5 455.5,443.5C 455.5,439.5 455.5,435.5 455.5,431.5C 447.5,431.5 439.5,431.5 431.5,431.5C 431.5,427.5 431.5,423.5 431.5,419.5C 419.5,419.5 407.5,419.5 395.5,419.5C 395.5,415.5 395.5,411.5 395.5,407.5C 411.5,407.5 427.5,407.5 443.5,407.5C 443.5,403.5 443.5,399.5 443.5,395.5C 439.5,395.5 435.5,395.5 431.5,395.5C 431.5,391.5 431.5,387.5 431.5,383.5C 427.5,383.5 423.5,383.5 419.5,383.5C 419.5,379.5 419.5,375.5 419.5,371.5C 415.5,371.5 411.5,371.5 407.5,371.5C 407.5,367.5 407.5,363.5 407.5,359.5C 403.5,359.5 399.5,359.5 395.5,359.5C 395.5,347.5 395.5,335.5 395.5,323.5C 399.5,323.5 403.5,323.5 407.5,323.5C 407.5,327.5 407.5,331.5 407.5,335.5C 407.5,339.5 407.5,343.5 407.5,347.5C 411.5,347.5 415.5,347.5 419.5,347.5C 419.5,351.5 419.5,355.5 419.5,359.5C 427.5,359.5 435.5,359.5 443.5,359.5C 443.5,363.5 443.5,367.5 443.5,371.5C 455.5,371.5 467.5,371.5 479.5,371.5C 479.5,363.5 479.5,355.5 479.5,347.5C 475.5,347.5 471.5,347.5 467.5,347.5C 467.5,351.5 467.5,355.5 467.5,359.5C 463.5,359.5 459.5,359.5 455.5,359.5C 455.5,355.5 455.5,351.5 455.5,347.5C 451.5,347.5 447.5,347.5 443.5,347.5C 443.5,343.5 443.5,339.5 443.5,335.5C 439.5,335.5 435.5,335.5 431.5,335.5C 431.5,331.5 431.5,327.5 431.5,323.5C 427.5,323.5 423.5,323.5 419.5,323.5C 419.5,319.5 419.5,315.5 419.5,311.5C 411.5,311.5 403.5,311.5 395.5,311.5C 395.5,307.5 395.5,303.5 395.5,299.5C 387.5,299.5 379.5,299.5 371.5,299.5C 371.5,295.5 371.5,291.5 371.5,287.5C 383.5,287.5 395.5,287.5 407.5,287.5C 407.5,291.5 407.5,295.5 407.5,299.5C 415.5,299.5 423.5,299.5 431.5,299.5C 439.5,299.5 447.5,299.5 455.5,299.5C 459.5,299.5 463.5,299.5 467.5,299.5C 467.5,303.5 467.5,307.5 467.5,311.5C 471.5,311.5 475.5,311.5 479.5,311.5C 479.5,315.5 479.5,319.5 479.5,323.5C 479.5,327.5 479.5,331.5 479.5,335.5C 487.5,335.5 495.5,335.5 503.5,335.5C 503.5,323.5 503.5,311.5 503.5,299.5C 507.5,299.5 511.5,299.5 515.5,299.5C 515.5,295.5 515.5,291.5 515.5,287.5C 527.5,287.5 539.5,287.5 551.5,287.5C 551.5,291.5 551.5,295.5 551.5,299.5C 559.5,299.5 567.5,299.5 575.5,299.5C 575.5,287.5 575.5,275.5 575.5,263.5C 579.5,263.5 583.5,263.5 587.5,263.5 Z"/></g>
<g><path style="opacity:1" fill="#fefffe" d="M 587.5,263.5 C 591.5,263.5 595.5,263.5 599.5,263.5C 599.5,271.5 599.5,279.5 599.5,287.5C 603.5,287.5 607.5,287.5 611.5,287.5C 611.5,291.5 611.5,295.5 611.5,299.5C 607.5,299.5 603.5,299.5 599.5,299.5C 599.5,303.5 599.5,307.5 599.5,311.5C 595.5,311.5 591.5,311.5 587.5,311.5C 587.5,295.5 587.5,279.5 587.5,263.5 Z"/></g>
<g><path style="opacity:1" fill="#fefffe" d="M 623.5,263.5 C 627.5,263.5 631.5,263.5 635.5,263.5C 635.5,267.5 635.5,271.5 635.5,275.5C 631.5,275.5 627.5,275.5 623.5,275.5C 623.5,271.5 623.5,267.5 623.5,263.5 Z"/></g>
<g><path style="opacity:1" fill="#00afff" d="M 407.5,287.5 C 395.5,287.5 383.5,287.5 371.5,287.5C 371.5,283.5 371.5,279.5 371.5,275.5C 383.5,275.5 395.5,275.5 407.5,275.5C 407.5,279.5 407.5,283.5 407.5,287.5 Z"/></g>
<g><path style="opacity:1" fill="#00afff" d="M 479.5,275.5 C 483.5,275.5 487.5,275.5 491.5,275.5C 491.5,279.5 491.5,283.5 491.5,287.5C 491.5,283.5 491.5,279.5 491.5,275.5C 487.5,275.5 483.5,275.5 479.5,275.5 Z"/></g>
<g><path style="opacity:1" fill="#00afff" d="M 515.5,275.5 C 515.5,279.5 515.5,283.5 515.5,287.5C 511.5,287.5 507.5,287.5 503.5,287.5C 503.5,283.5 503.5,279.5 503.5,275.5C 507.5,275.5 511.5,275.5 515.5,275.5 Z"/></g>
<g><path style="opacity:1" fill="#fefffe" d="M 623.5,275.5 C 623.5,279.5 623.5,283.5 623.5,287.5C 619.5,287.5 615.5,287.5 611.5,287.5C 611.5,283.5 611.5,279.5 611.5,275.5C 615.5,275.5 619.5,275.5 623.5,275.5 Z"/></g>
<g><path style="opacity:1" fill="#fefffe" d="M 671.5,275.5 C 671.5,287.5 671.5,299.5 671.5,311.5C 667.5,311.5 663.5,311.5 659.5,311.5C 659.5,299.5 659.5,287.5 659.5,275.5C 663.5,275.5 667.5,275.5 671.5,275.5 Z"/></g>
<g><path style="opacity:1" fill="#00afff" d="M 407.5,287.5 C 415.5,287.5 423.5,287.5 431.5,287.5C 431.5,291.5 431.5,295.5 431.5,299.5C 423.5,299.5 415.5,299.5 407.5,299.5C 407.5,295.5 407.5,291.5 407.5,287.5 Z"/></g>
<g><path style="opacity:1" fill="#fefffe" d="M 431.5,287.5 C 435.5,287.5 439.5,287.5 443.5,287.5C 447.5,287.5 451.5,287.5 455.5,287.5C 455.5,291.5 455.5,295.5 455.5,299.5C 447.5,299.5 439.5,299.5 431.5,299.5C 431.5,295.5 431.5,291.5 431.5,287.5 Z"/></g>
<g><path style="opacity:1" fill="#00afff" d="M 491.5,287.5 C 495.5,287.5 499.5,287.5 503.5,287.5C 503.5,291.5 503.5,295.5 503.5,299.5C 499.5,299.5 495.5,299.5 491.5,299.5C 491.5,295.5 491.5,291.5 491.5,287.5 Z"/></g>
<g><path style="opacity:1" fill="#fefffe" d="M 503.5,287.5 C 507.5,287.5 511.5,287.5 515.5,287.5C 515.5,291.5 515.5,295.5 515.5,299.5C 511.5,299.5 507.5,299.5 503.5,299.5C 503.5,295.5 503.5,291.5 503.5,287.5 Z"/></g>
<g><path style="opacity:1" fill="#000000" d="M 731.5,287.5 C 731.5,291.5 731.5,295.5 731.5,299.5C 727.5,299.5 723.5,299.5 719.5,299.5C 719.5,295.5 719.5,291.5 719.5,287.5C 723.5,287.5 727.5,287.5 731.5,287.5 Z"/></g>
<g><path style="opacity:1" fill="#00afff" d="M 371.5,299.5 C 379.5,299.5 387.5,299.5 395.5,299.5C 395.5,303.5 395.5,307.5 395.5,311.5C 387.5,311.5 379.5,311.5 371.5,311.5C 371.5,307.5 371.5,303.5 371.5,299.5 Z"/></g>
<g><path style="opacity:1" fill="#fefffe" d="M 455.5,299.5 C 459.5,299.5 463.5,299.5 467.5,299.5C 467.5,303.5 467.5,307.5 467.5,311.5C 463.5,311.5 459.5,311.5 455.5,311.5C 455.5,307.5 455.5,303.5 455.5,299.5 Z"/></g>
<g><path style="opacity:1" fill="#fefffe" d="M 491.5,299.5 C 495.5,299.5 499.5,299.5 503.5,299.5C 503.5,311.5 503.5,323.5 503.5,335.5C 495.5,335.5 487.5,335.5 479.5,335.5C 479.5,331.5 479.5,327.5 479.5,323.5C 483.5,323.5 487.5,323.5 491.5,323.5C 491.5,315.5 491.5,307.5 491.5,299.5 Z"/></g>
<g><path style="opacity:1" fill="#fefffe" d="M 731.5,299.5 C 735.5,299.5 739.5,299.5 743.5,299.5C 743.5,303.5 743.5,307.5 743.5,311.5C 739.5,311.5 735.5,311.5 731.5,311.5C 731.5,307.5 731.5,303.5 731.5,299.5 Z"/></g>
<g><path style="opacity:1" fill="#00afff" d="M 395.5,311.5 C 403.5,311.5 411.5,311.5 419.5,311.5C 419.5,315.5 419.5,319.5 419.5,323.5C 423.5,323.5 427.5,323.5 431.5,323.5C 431.5,327.5 431.5,331.5 431.5,335.5C 435.5,335.5 439.5,335.5 443.5,335.5C 443.5,339.5 443.5,343.5 443.5,347.5C 435.5,347.5 427.5,347.5 419.5,347.5C 415.5,347.5 411.5,347.5 407.5,347.5C 407.5,343.5 407.5,339.5 407.5,335.5C 407.5,331.5 407.5,327.5 407.5,323.5C 403.5,323.5 399.5,323.5 395.5,323.5C 395.5,319.5 395.5,315.5 395.5,311.5 Z"/></g>
<g><path style="opacity:1" fill="#fefffe" d="M 467.5,311.5 C 471.5,311.5 475.5,311.5 479.5,311.5C 479.5,315.5 479.5,319.5 479.5,323.5C 475.5,323.5 471.5,323.5 467.5,323.5C 467.5,319.5 467.5,315.5 467.5,311.5 Z"/></g>
<g><path style="opacity:1" fill="#fefffe" d="M 587.5,311.5 C 587.5,319.5 587.5,327.5 587.5,335.5C 583.5,335.5 579.5,335.5 575.5,335.5C 575.5,327.5 575.5,319.5 575.5,311.5C 579.5,311.5 583.5,311.5 587.5,311.5 Z"/></g>
<g><path style="opacity:1" fill="#fefffe" d="M 659.5,311.5 C 659.5,327.5 659.5,343.5 659.5,359.5C 647.5,359.5 635.5,359.5 623.5,359.5C 623.5,355.5 623.5,351.5 623.5,347.5C 631.5,347.5 639.5,347.5 647.5,347.5C 647.5,335.5 647.5,323.5 647.5,311.5C 651.5,311.5 655.5,311.5 659.5,311.5 Z"/></g>
<g><path style="opacity:1" fill="#fefffe" d="M 719.5,311.5 C 723.5,311.5 727.5,311.5 731.5,311.5C 731.5,315.5 731.5,319.5 731.5,323.5C 727.5,323.5 723.5,323.5 719.5,323.5C 719.5,327.5 719.5,331.5 719.5,335.5C 703.5,335.5 687.5,335.5 671.5,335.5C 671.5,331.5 671.5,327.5 671.5,323.5C 675.5,323.5 679.5,323.5 683.5,323.5C 683.5,319.5 683.5,315.5 683.5,311.5C 695.5,311.5 707.5,311.5 719.5,311.5 Z"/></g>
<g><path style="opacity:1" fill="#00afff" d="M 395.5,323.5 C 395.5,335.5 395.5,347.5 395.5,359.5C 391.5,359.5 387.5,359.5 383.5,359.5C 383.5,347.5 383.5,335.5 383.5,323.5C 387.5,323.5 391.5,323.5 395.5,323.5 Z"/></g>
<g><path style="opacity:1" fill="#fefffe" d="M 731.5,323.5 C 735.5,323.5 739.5,323.5 743.5,323.5C 743.5,331.5 743.5,339.5 743.5,347.5C 739.5,347.5 735.5,347.5 731.5,347.5C 731.5,339.5 731.5,331.5 731.5,323.5 Z"/></g>
<g><path style="opacity:1" fill="#fefffe" d="M 407.5,335.5 C 411.5,335.5 415.5,335.5 419.5,335.5C 419.5,339.5 419.5,343.5 419.5,347.5C 419.5,343.5 419.5,339.5 419.5,335.5C 415.5,335.5 411.5,335.5 407.5,335.5 Z"/></g>
<g><path style="opacity:1" fill="#fefffe" d="M 515.5,347.5 C 515.5,343.5 515.5,339.5 515.5,335.5C 523.5,335.5 531.5,335.5 539.5,335.5C 539.5,339.5 539.5,343.5 539.5,347.5C 531.5,347.5 523.5,347.5 515.5,347.5 Z"/></g>
<g><path style="opacity:1" fill="#fefffe" d="M 575.5,335.5 C 575.5,339.5 575.5,343.5 575.5,347.5C 571.5,347.5 567.5,347.5 563.5,347.5C 563.5,343.5 563.5,339.5 563.5,335.5C 567.5,335.5 571.5,335.5 575.5,335.5 Z"/></g>
<g><path style="opacity:1" fill="#fefffe" d="M 419.5,347.5 C 427.5,347.5 435.5,347.5 443.5,347.5C 443.5,351.5 443.5,355.5 443.5,359.5C 435.5,359.5 427.5,359.5 419.5,359.5C 419.5,355.5 419.5,351.5 419.5,347.5 Z"/></g>
<g><path style="opacity:1" fill="#00afff" d="M 443.5,347.5 C 447.5,347.5 451.5,347.5 455.5,347.5C 455.5,351.5 455.5,355.5 455.5,359.5C 451.5,359.5 447.5,359.5 443.5,359.5C 443.5,355.5 443.5,351.5 443.5,347.5 Z"/></g>
<g><path style="opacity:1" fill="#fefffe" d="M 443.5,359.5 C 447.5,359.5 451.5,359.5 455.5,359.5C 459.5,359.5 463.5,359.5 467.5,359.5C 467.5,355.5 467.5,351.5 467.5,347.5C 471.5,347.5 475.5,347.5 479.5,347.5C 479.5,355.5 479.5,363.5 479.5,371.5C 467.5,371.5 455.5,371.5 443.5,371.5C 443.5,367.5 443.5,363.5 443.5,359.5 Z"/></g>
<g><path style="opacity:1" fill="#fefffe" d="M 515.5,347.5 C 515.5,351.5 515.5,355.5 515.5,359.5C 511.5,359.5 507.5,359.5 503.5,359.5C 503.5,355.5 503.5,351.5 503.5,347.5C 507.5,347.5 511.5,347.5 515.5,347.5 Z"/></g>
<g><path style="opacity:1" fill="#fefffe" d="M 563.5,347.5 C 563.5,355.5 563.5,363.5 563.5,371.5C 567.5,371.5 571.5,371.5 575.5,371.5C 575.5,375.5 575.5,379.5 575.5,383.5C 579.5,383.5 583.5,383.5 587.5,383.5C 587.5,387.5 587.5,391.5 587.5,395.5C 591.5,395.5 595.5,395.5 599.5,395.5C 599.5,403.5 599.5,411.5 599.5,419.5C 595.5,419.5 591.5,419.5 587.5,419.5C 587.5,415.5 587.5,411.5 587.5,407.5C 583.5,407.5 579.5,407.5 575.5,407.5C 575.5,403.5 575.5,399.5 575.5,395.5C 571.5,395.5 567.5,395.5 563.5,395.5C 563.5,391.5 563.5,387.5 563.5,383.5C 555.5,383.5 547.5,383.5 539.5,383.5C 539.5,391.5 539.5,399.5 539.5,407.5C 535.5,407.5 531.5,407.5 527.5,407.5C 527.5,395.5 527.5,383.5 527.5,371.5C 535.5,371.5 543.5,371.5 551.5,371.5C 551.5,363.5 551.5,355.5 551.5,347.5C 555.5,347.5 559.5,347.5 563.5,347.5 Z"/></g>
<g><path style="opacity:1" fill="#fefffe" d="M 731.5,347.5 C 731.5,351.5 731.5,355.5 731.5,359.5C 727.5,359.5 723.5,359.5 719.5,359.5C 719.5,355.5 719.5,351.5 719.5,347.5C 723.5,347.5 727.5,347.5 731.5,347.5 Z"/></g>
<g><path style="opacity:1" fill="#000000" d="M 731.5,347.5 C 735.5,347.5 739.5,347.5 743.5,347.5C 743.5,351.5 743.5,355.5 743.5,359.5C 739.5,359.5 735.5,359.5 731.5,359.5C 731.5,355.5 731.5,351.5 731.5,347.5 Z"/></g>
<g><path style="opacity:1" fill="#00afff" d="M 743.5,347.5 C 747.5,347.5 751.5,347.5 755.5,347.5C 755.5,351.5 755.5,355.5 755.5,359.5C 751.5,359.5 747.5,359.5 743.5,359.5C 743.5,355.5 743.5,351.5 743.5,347.5 Z"/></g>
<g><path style="opacity:1" fill="#00afff" d="M 395.5,359.5 C 399.5,359.5 403.5,359.5 407.5,359.5C 407.5,363.5 407.5,367.5 407.5,371.5C 403.5,371.5 399.5,371.5 395.5,371.5C 395.5,367.5 395.5,363.5 395.5,359.5 Z"/></g>
<g><path style="opacity:1" fill="#fefffe" d="M 503.5,359.5 C 503.5,371.5 503.5,383.5 503.5,395.5C 499.5,395.5 495.5,395.5 491.5,395.5C 491.5,383.5 491.5,371.5 491.5,359.5C 495.5,359.5 499.5,359.5 503.5,359.5 Z"/></g>
<g><path style="opacity:1" fill="#fefffe" d="M 659.5,359.5 C 663.5,359.5 667.5,359.5 671.5,359.5C 671.5,363.5 671.5,367.5 671.5,371.5C 667.5,371.5 663.5,371.5 659.5,371.5C 659.5,367.5 659.5,363.5 659.5,359.5 Z"/></g>
<g><path style="opacity:1" fill="#fefffe" d="M 695.5,371.5 C 695.5,367.5 695.5,363.5 695.5,359.5C 699.5,359.5 703.5,359.5 707.5,359.5C 707.5,363.5 707.5,367.5 707.5,371.5C 703.5,371.5 699.5,371.5 695.5,371.5 Z"/></g>
<g><path style="opacity:1" fill="#00afff" d="M 731.5,359.5 C 735.5,359.5 739.5,359.5 743.5,359.5C 743.5,363.5 743.5,367.5 743.5,371.5C 739.5,371.5 735.5,371.5 731.5,371.5C 731.5,367.5 731.5,363.5 731.5,359.5 Z"/></g>
<g><path style="opacity:1" fill="#00afff" d="M 407.5,371.5 C 411.5,371.5 415.5,371.5 419.5,371.5C 419.5,375.5 419.5,379.5 419.5,383.5C 415.5,383.5 411.5,383.5 407.5,383.5C 407.5,379.5 407.5,375.5 407.5,371.5 Z"/></g>
<g><path style="opacity:1" fill="#fefffe" d="M 647.5,395.5 C 643.5,395.5 639.5,395.5 635.5,395.5C 631.5,395.5 627.5,395.5 623.5,395.5C 623.5,403.5 623.5,411.5 623.5,419.5C 619.5,419.5 615.5,419.5 611.5,419.5C 611.5,403.5 611.5,387.5 611.5,371.5C 619.5,371.5 627.5,371.5 635.5,371.5C 635.5,375.5 635.5,379.5 635.5,383.5C 639.5,383.5 643.5,383.5 647.5,383.5C 647.5,387.5 647.5,391.5 647.5,395.5 Z"/></g>
<g><path style="opacity:1" fill="#fefffe" d="M 683.5,371.5 C 687.5,371.5 691.5,371.5 695.5,371.5C 695.5,375.5 695.5,379.5 695.5,383.5C 691.5,383.5 687.5,383.5 683.5,383.5C 683.5,379.5 683.5,375.5 683.5,371.5 Z"/></g>
<g><path style="opacity:1" fill="#00afff" d="M 743.5,371.5 C 747.5,371.5 751.5,371.5 755.5,371.5C 755.5,375.5 755.5,379.5 755.5,383.5C 755.5,379.5 755.5,375.5 755.5,371.5C 751.5,371.5 747.5,371.5 743.5,371.5 Z"/></g>
<g><path style="opacity:1" fill="#00afff" d="M 419.5,383.5 C 423.5,383.5 427.5,383.5 431.5,383.5C 431.5,387.5 431.5,391.5 431.5,395.5C 435.5,395.5 439.5,395.5 443.5,395.5C 443.5,399.5 443.5,403.5 443.5,407.5C 427.5,407.5 411.5,407.5 395.5,407.5C 395.5,403.5 395.5,399.5 395.5,395.5C 403.5,395.5 411.5,395.5 419.5,395.5C 419.5,391.5 419.5,387.5 419.5,383.5 Z"/></g>
<g><path style="opacity:1" fill="#be360b" d="M 599.5,419.5 C 599.5,423.5 599.5,427.5 599.5,431.5C 603.5,431.5 607.5,431.5 611.5,431.5C 611.5,435.5 611.5,439.5 611.5,443.5C 607.5,443.5 603.5,443.5 599.5,443.5C 595.5,443.5 591.5,443.5 587.5,443.5C 587.5,439.5 587.5,435.5 587.5,431.5C 583.5,431.5 579.5,431.5 575.5,431.5C 575.5,427.5 575.5,423.5 575.5,419.5C 571.5,419.5 567.5,419.5 563.5,419.5C 563.5,415.5 563.5,411.5 563.5,407.5C 555.5,407.5 547.5,407.5 539.5,407.5C 539.5,399.5 539.5,391.5 539.5,383.5C 547.5,383.5 555.5,383.5 563.5,383.5C 563.5,387.5 563.5,391.5 563.5,395.5C 567.5,395.5 571.5,395.5 575.5,395.5C 575.5,399.5 575.5,403.5 575.5,407.5C 579.5,407.5 583.5,407.5 587.5,407.5C 587.5,411.5 587.5,415.5 587.5,419.5C 591.5,419.5 595.5,419.5 599.5,419.5 Z"/></g>
<g><path style="opacity:1" fill="#00afff" d="M 755.5,383.5 C 759.5,383.5 763.5,383.5 767.5,383.5C 767.5,387.5 767.5,391.5 767.5,395.5C 767.5,391.5 767.5,387.5 767.5,383.5C 763.5,383.5 759.5,383.5 755.5,383.5 Z"/></g>
<g><path style="opacity:1" fill="#fefffe" d="M 503.5,395.5 C 507.5,395.5 511.5,395.5 515.5,395.5C 515.5,399.5 515.5,403.5 515.5,407.5C 515.5,403.5 515.5,399.5 515.5,395.5C 511.5,395.5 507.5,395.5 503.5,395.5 Z"/></g>
<g><path style="opacity:1" fill="#be360b" d="M 635.5,395.5 C 635.5,403.5 635.5,411.5 635.5,419.5C 631.5,419.5 627.5,419.5 623.5,419.5C 623.5,411.5 623.5,403.5 623.5,395.5C 627.5,395.5 631.5,395.5 635.5,395.5 Z"/></g>
<g><path style="opacity:1" fill="#000000" d="M 635.5,395.5 C 639.5,395.5 643.5,395.5 647.5,395.5C 651.5,395.5 655.5,395.5 659.5,395.5C 659.5,399.5 659.5,403.5 659.5,407.5C 659.5,411.5 659.5,415.5 659.5,419.5C 655.5,419.5 651.5,419.5 647.5,419.5C 647.5,431.5 647.5,443.5 647.5,455.5C 643.5,455.5 639.5,455.5 635.5,455.5C 635.5,443.5 635.5,431.5 635.5,419.5C 635.5,411.5 635.5,403.5 635.5,395.5 Z"/></g>
<g><path style="opacity:1" fill="#fefffe" d="M 647.5,395.5 C 651.5,395.5 655.5,395.5 659.5,395.5C 659.5,399.5 659.5,403.5 659.5,407.5C 655.5,407.5 651.5,407.5 647.5,407.5C 647.5,403.5 647.5,399.5 647.5,395.5 Z"/></g>
<g><path style="opacity:1" fill="#fefffe" d="M 683.5,395.5 C 687.5,395.5 691.5,395.5 695.5,395.5C 695.5,399.5 695.5,403.5 695.5,407.5C 691.5,407.5 687.5,407.5 683.5,407.5C 683.5,403.5 683.5,399.5 683.5,395.5 Z"/></g>
<g><path style="opacity:1" fill="#00afff" d="M 767.5,395.5 C 771.5,395.5 775.5,395.5 779.5,395.5C 779.5,399.5 779.5,403.5 779.5,407.5C 775.5,407.5 771.5,407.5 767.5,407.5C 767.5,403.5 767.5,399.5 767.5,395.5 Z"/></g>
<g><path style="opacity:1" fill="#00afff" d="M 395.5,407.5 C 395.5,411.5 395.5,415.5 395.5,419.5C 391.5,419.5 387.5,419.5 383.5,419.5C 383.5,415.5 383.5,411.5 383.5,407.5C 387.5,407.5 391.5,407.5 395.5,407.5 Z"/></g>
<g><path style="opacity:1" fill="#fefffe" d="M 515.5,407.5 C 519.5,407.5 523.5,407.5 527.5,407.5C 527.5,411.5 527.5,415.5 527.5,419.5C 523.5,419.5 519.5,419.5 515.5,419.5C 515.5,415.5 515.5,411.5 515.5,407.5 Z"/></g>
<g><path style="opacity:1" fill="#000000" d="M 527.5,407.5 C 531.5,407.5 535.5,407.5 539.5,407.5C 539.5,411.5 539.5,415.5 539.5,419.5C 535.5,419.5 531.5,419.5 527.5,419.5C 527.5,415.5 527.5,411.5 527.5,407.5 Z"/></g>
<g><path style="opacity:1" fill="#fead5f" d="M 539.5,407.5 C 547.5,407.5 555.5,407.5 563.5,407.5C 563.5,411.5 563.5,415.5 563.5,419.5C 555.5,419.5 547.5,419.5 539.5,419.5C 539.5,415.5 539.5,411.5 539.5,407.5 Z"/></g>
<g><path style="opacity:1" fill="#fefffe" d="M 659.5,407.5 C 663.5,407.5 667.5,407.5 671.5,407.5C 671.5,411.5 671.5,415.5 671.5,419.5C 667.5,419.5 663.5,419.5 659.5,419.5C 659.5,415.5 659.5,411.5 659.5,407.5 Z"/></g>
<g><path style="opacity:1" fill="#00afff" d="M 695.5,407.5 C 719.5,407.5 743.5,407.5 767.5,407.5C 767.5,411.5 767.5,415.5 767.5,419.5C 747.5,419.5 727.5,419.5 707.5,419.5C 707.5,431.5 707.5,443.5 707.5,455.5C 703.5,455.5 699.5,455.5 695.5,455.5C 695.5,439.5 695.5,423.5 695.5,407.5 Z"/></g>
<g><path style="opacity:1" fill="#00afff" d="M 395.5,419.5 C 407.5,419.5 419.5,419.5 431.5,419.5C 431.5,423.5 431.5,427.5 431.5,431.5C 419.5,431.5 407.5,431.5 395.5,431.5C 395.5,427.5 395.5,423.5 395.5,419.5 Z"/></g>
<g><path style="opacity:1" fill="#9d9e9d" d="M 527.5,419.5 C 531.5,419.5 535.5,419.5 539.5,419.5C 539.5,423.5 539.5,427.5 539.5,431.5C 535.5,431.5 531.5,431.5 527.5,431.5C 527.5,427.5 527.5,423.5 527.5,419.5 Z"/></g>
<g><path style="opacity:1" fill="#000000" d="M 539.5,419.5 C 547.5,419.5 555.5,419.5 563.5,419.5C 563.5,423.5 563.5,427.5 563.5,431.5C 559.5,431.5 555.5,431.5 551.5,431.5C 547.5,431.5 543.5,431.5 539.5,431.5C 539.5,427.5 539.5,423.5 539.5,419.5 Z"/></g>
<g><path style="opacity:1" fill="#fead5f" d="M 563.5,419.5 C 567.5,419.5 571.5,419.5 575.5,419.5C 575.5,423.5 575.5,427.5 575.5,431.5C 571.5,431.5 567.5,431.5 563.5,431.5C 563.5,427.5 563.5,423.5 563.5,419.5 Z"/></g>
<g><path style="opacity:1" fill="#fefffe" d="M 599.5,419.5 C 603.5,419.5 607.5,419.5 611.5,419.5C 611.5,423.5 611.5,427.5 611.5,431.5C 607.5,431.5 603.5,431.5 599.5,431.5C 599.5,427.5 599.5,423.5 599.5,419.5 Z"/></g>
<g><path style="opacity:1" fill="#fead5f" d="M 611.5,419.5 C 615.5,419.5 619.5,419.5 623.5,419.5C 627.5,419.5 631.5,419.5 635.5,419.5C 635.5,431.5 635.5,443.5 635.5,455.5C 631.5,455.5 627.5,455.5 623.5,455.5C 623.5,463.5 623.5,471.5 623.5,479.5C 619.5,479.5 615.5,479.5 611.5,479.5C 611.5,483.5 611.5,487.5 611.5,491.5C 607.5,491.5 603.5,491.5 599.5,491.5C 599.5,495.5 599.5,499.5 599.5,503.5C 583.5,503.5 567.5,503.5 551.5,503.5C 551.5,499.5 551.5,495.5 551.5,491.5C 547.5,491.5 543.5,491.5 539.5,491.5C 539.5,487.5 539.5,483.5 539.5,479.5C 535.5,479.5 531.5,479.5 527.5,479.5C 527.5,471.5 527.5,463.5 527.5,455.5C 527.5,447.5 527.5,439.5 527.5,431.5C 531.5,431.5 535.5,431.5 539.5,431.5C 539.5,439.5 539.5,447.5 539.5,455.5C 543.5,455.5 547.5,455.5 551.5,455.5C 555.5,455.5 559.5,455.5 563.5,455.5C 563.5,459.5 563.5,463.5 563.5,467.5C 567.5,467.5 571.5,467.5 575.5,467.5C 579.5,467.5 583.5,467.5 587.5,467.5C 587.5,463.5 587.5,459.5 587.5,455.5C 591.5,455.5 595.5,455.5 599.5,455.5C 599.5,451.5 599.5,447.5 599.5,443.5C 603.5,443.5 607.5,443.5 611.5,443.5C 611.5,439.5 611.5,435.5 611.5,431.5C 611.5,427.5 611.5,423.5 611.5,419.5 Z"/></g>
<g><path style="opacity:1" fill="#00afff" d="M 659.5,419.5 C 659.5,423.5 659.5,427.5 659.5,431.5C 663.5,431.5 667.5,431.5 671.5,431.5C 671.5,435.5 671.5,439.5 671.5,443.5C 667.5,443.5 663.5,443.5 659.5,443.5C 659.5,447.5 659.5,451.5 659.5,455.5C 655.5,455.5 651.5,455.5 647.5,455.5C 647.5,443.5 647.5,431.5 647.5,419.5C 651.5,419.5 655.5,419.5 659.5,419.5 Z"/></g>
<g><path style="opacity:1" fill="#00afff" d="M 431.5,431.5 C 439.5,431.5 447.5,431.5 455.5,431.5C 455.5,435.5 455.5,439.5 455.5,443.5C 447.5,443.5 439.5,443.5 431.5,443.5C 431.5,439.5 431.5,435.5 431.5,431.5 Z"/></g>
<g><path style="opacity:1" fill="#fead5f" d="M 515.5,455.5 C 515.5,459.5 515.5,463.5 515.5,467.5C 507.5,467.5 499.5,467.5 491.5,467.5C 491.5,455.5 491.5,443.5 491.5,431.5C 495.5,431.5 499.5,431.5 503.5,431.5C 503.5,435.5 503.5,439.5 503.5,443.5C 507.5,443.5 511.5,443.5 515.5,443.5C 515.5,447.5 515.5,451.5 515.5,455.5 Z"/></g>
<g><path style="opacity:1" fill="#be360b" d="M 539.5,431.5 C 543.5,431.5 547.5,431.5 551.5,431.5C 551.5,439.5 551.5,447.5 551.5,455.5C 547.5,455.5 543.5,455.5 539.5,455.5C 539.5,447.5 539.5,439.5 539.5,431.5 Z"/></g>
<g><path style="opacity:1" fill="#fefffe" d="M 551.5,431.5 C 555.5,431.5 559.5,431.5 563.5,431.5C 563.5,435.5 563.5,439.5 563.5,443.5C 567.5,443.5 571.5,443.5 575.5,443.5C 575.5,447.5 575.5,451.5 575.5,455.5C 575.5,459.5 575.5,463.5 575.5,467.5C 571.5,467.5 567.5,467.5 563.5,467.5C 563.5,463.5 563.5,459.5 563.5,455.5C 559.5,455.5 555.5,455.5 551.5,455.5C 551.5,447.5 551.5,439.5 551.5,431.5 Z"/></g>
<g><path style="opacity:1" fill="#000000" d="M 563.5,431.5 C 567.5,431.5 571.5,431.5 575.5,431.5C 575.5,435.5 575.5,439.5 575.5,443.5C 571.5,443.5 567.5,443.5 563.5,443.5C 563.5,439.5 563.5,435.5 563.5,431.5 Z"/></g>
<g><path style="opacity:1" fill="#fead5f" d="M 575.5,431.5 C 579.5,431.5 583.5,431.5 587.5,431.5C 587.5,435.5 587.5,439.5 587.5,443.5C 583.5,443.5 579.5,443.5 575.5,443.5C 575.5,439.5 575.5,435.5 575.5,431.5 Z"/></g>
<g><path style="opacity:1" fill="#00afff" d="M 455.5,443.5 C 459.5,443.5 463.5,443.5 467.5,443.5C 467.5,447.5 467.5,451.5 467.5,455.5C 463.5,455.5 459.5,455.5 455.5,455.5C 455.5,451.5 455.5,447.5 455.5,443.5 Z"/></g>
<g><path style="opacity:1" fill="#000000" d="M 575.5,443.5 C 579.5,443.5 583.5,443.5 587.5,443.5C 591.5,443.5 595.5,443.5 599.5,443.5C 599.5,447.5 599.5,451.5 599.5,455.5C 595.5,455.5 591.5,455.5 587.5,455.5C 583.5,455.5 579.5,455.5 575.5,455.5C 575.5,451.5 575.5,447.5 575.5,443.5 Z"/></g>
<g><path style="opacity:1" fill="#00afff" d="M 671.5,443.5 C 675.5,443.5 679.5,443.5 683.5,443.5C 683.5,447.5 683.5,451.5 683.5,455.5C 679.5,455.5 675.5,455.5 671.5,455.5C 671.5,451.5 671.5,447.5 671.5,443.5 Z"/></g>
<g><path style="opacity:1" fill="#00afff" d="M 467.5,455.5 C 471.5,455.5 475.5,455.5 479.5,455.5C 479.5,459.5 479.5,463.5 479.5,467.5C 475.5,467.5 471.5,467.5 467.5,467.5C 467.5,463.5 467.5,459.5 467.5,455.5 Z"/></g>
<g><path style="opacity:1" fill="#be360b" d="M 515.5,455.5 C 519.5,455.5 523.5,455.5 527.5,455.5C 527.5,463.5 527.5,471.5 527.5,479.5C 523.5,479.5 519.5,479.5 515.5,479.5C 515.5,475.5 515.5,471.5 515.5,467.5C 515.5,463.5 515.5,459.5 515.5,455.5 Z"/></g>
<g><path style="opacity:1" fill="#9d9e9d" d="M 575.5,455.5 C 579.5,455.5 583.5,455.5 587.5,455.5C 587.5,459.5 587.5,463.5 587.5,467.5C 583.5,467.5 579.5,467.5 575.5,467.5C 575.5,463.5 575.5,459.5 575.5,455.5 Z"/></g>
<g><path style="opacity:1" fill="#000000" d="M 635.5,455.5 C 635.5,463.5 635.5,471.5 635.5,479.5C 631.5,479.5 627.5,479.5 623.5,479.5C 623.5,471.5 623.5,463.5 623.5,455.5C 627.5,455.5 631.5,455.5 635.5,455.5 Z"/></g>
<g><path style="opacity:1" fill="#00afff" d="M 635.5,455.5 C 639.5,455.5 643.5,455.5 647.5,455.5C 647.5,467.5 647.5,479.5 647.5,491.5C 639.5,491.5 631.5,491.5 623.5,491.5C 623.5,487.5 623.5,483.5 623.5,479.5C 627.5,479.5 631.5,479.5 635.5,479.5C 635.5,471.5 635.5,463.5 635.5,455.5 Z"/></g>
<g><path style="opacity:1" fill="#00afff" d="M 683.5,455.5 C 687.5,455.5 691.5,455.5 695.5,455.5C 695.5,459.5 695.5,463.5 695.5,467.5C 691.5,467.5 687.5,467.5 683.5,467.5C 683.5,463.5 683.5,459.5 683.5,455.5 Z"/></g>
<g><path style="opacity:1" fill="#00afff" d="M 479.5,467.5 C 483.5,467.5 487.5,467.5 491.5,467.5C 491.5,471.5 491.5,475.5 491.5,479.5C 499.5,479.5 507.5,479.5 515.5,479.5C 515.5,483.5 515.5,487.5 515.5,491.5C 499.5,491.5 483.5,491.5 467.5,491.5C 467.5,487.5 467.5,483.5 467.5,479.5C 471.5,479.5 475.5,479.5 479.5,479.5C 479.5,475.5 479.5,471.5 479.5,467.5 Z"/></g>
<g><path style="opacity:1" fill="#000000" d="M 491.5,467.5 C 499.5,467.5 507.5,467.5 515.5,467.5C 515.5,471.5 515.5,475.5 515.5,479.5C 507.5,479.5 499.5,479.5 491.5,479.5C 491.5,475.5 491.5,471.5 491.5,467.5 Z"/></g>
<g><path style="opacity:1" fill="#000000" d="M 515.5,479.5 C 519.5,479.5 523.5,479.5 527.5,479.5C 531.5,479.5 535.5,479.5 539.5,479.5C 539.5,483.5 539.5,487.5 539.5,491.5C 535.5,491.5 531.5,491.5 527.5,491.5C 527.5,495.5 527.5,499.5 527.5,503.5C 523.5,503.5 519.5,503.5 515.5,503.5C 507.5,503.5 499.5,503.5 491.5,503.5C 487.5,503.5 483.5,503.5 479.5,503.5C 475.5,503.5 471.5,503.5 467.5,503.5C 467.5,499.5 467.5,495.5 467.5,491.5C 483.5,491.5 499.5,491.5 515.5,491.5C 515.5,487.5 515.5,483.5 515.5,479.5 Z"/></g>
<g><path style="opacity:1" fill="#000000" d="M 623.5,479.5 C 623.5,483.5 623.5,487.5 623.5,491.5C 631.5,491.5 639.5,491.5 647.5,491.5C 647.5,495.5 647.5,499.5 647.5,503.5C 643.5,503.5 639.5,503.5 635.5,503.5C 635.5,507.5 635.5,511.5 635.5,515.5C 631.5,515.5 627.5,515.5 623.5,515.5C 623.5,511.5 623.5,507.5 623.5,503.5C 615.5,503.5 607.5,503.5 599.5,503.5C 599.5,499.5 599.5,495.5 599.5,491.5C 603.5,491.5 607.5,491.5 611.5,491.5C 611.5,487.5 611.5,483.5 611.5,479.5C 615.5,479.5 619.5,479.5 623.5,479.5 Z"/></g>
<g><path style="opacity:1" fill="#00afff" d="M 467.5,491.5 C 467.5,495.5 467.5,499.5 467.5,503.5C 463.5,503.5 459.5,503.5 455.5,503.5C 455.5,499.5 455.5,495.5 455.5,491.5C 459.5,491.5 463.5,491.5 467.5,491.5 Z"/></g>
<g><path style="opacity:1" fill="#be360b" d="M 539.5,491.5 C 543.5,491.5 547.5,491.5 551.5,491.5C 551.5,495.5 551.5,499.5 551.5,503.5C 551.5,507.5 551.5,511.5 551.5,515.5C 539.5,515.5 527.5,515.5 515.5,515.5C 515.5,511.5 515.5,507.5 515.5,503.5C 519.5,503.5 523.5,503.5 527.5,503.5C 527.5,499.5 527.5,495.5 527.5,491.5C 531.5,491.5 535.5,491.5 539.5,491.5 Z"/></g>
<g><path style="opacity:1" fill="#000000" d="M 539.5,491.5 C 543.5,491.5 547.5,491.5 551.5,491.5C 551.5,495.5 551.5,499.5 551.5,503.5C 547.5,503.5 543.5,503.5 539.5,503.5C 539.5,499.5 539.5,495.5 539.5,491.5 Z"/></g>
<g><path style="opacity:1" fill="#00afff" d="M 647.5,491.5 C 651.5,491.5 655.5,491.5 659.5,491.5C 659.5,495.5 659.5,499.5 659.5,503.5C 655.5,503.5 651.5,503.5 647.5,503.5C 647.5,499.5 647.5,495.5 647.5,491.5 Z"/></g>
<g><path style="opacity:1" fill="#00afff" d="M 455.5,503.5 C 455.5,507.5 455.5,511.5 455.5,515.5C 451.5,515.5 447.5,515.5 443.5,515.5C 443.5,511.5 443.5,507.5 443.5,503.5C 447.5,503.5 451.5,503.5 455.5,503.5 Z"/></g>
<g><path style="opacity:1" fill="#000000" d="M 455.5,503.5 C 459.5,503.5 463.5,503.5 467.5,503.5C 467.5,507.5 467.5,511.5 467.5,515.5C 463.5,515.5 459.5,515.5 455.5,515.5C 455.5,511.5 455.5,507.5 455.5,503.5 Z"/></g>
<g><path style="opacity:1" fill="#fead5f" d="M 467.5,503.5 C 471.5,503.5 475.5,503.5 479.5,503.5C 479.5,507.5 479.5,511.5 479.5,515.5C 475.5,515.5 471.5,515.5 467.5,515.5C 467.5,511.5 467.5,507.5 467.5,503.5 Z"/></g>
<g><path style="opacity:1" fill="#be360b" d="M 479.5,503.5 C 483.5,503.5 487.5,503.5 491.5,503.5C 491.5,507.5 491.5,511.5 491.5,515.5C 487.5,515.5 483.5,515.5 479.5,515.5C 479.5,511.5 479.5,507.5 479.5,503.5 Z"/></g>
<g><path style="opacity:1" fill="#fead5f" d="M 491.5,503.5 C 499.5,503.5 507.5,503.5 515.5,503.5C 515.5,507.5 515.5,511.5 515.5,515.5C 527.5,515.5 539.5,515.5 551.5,515.5C 555.5,515.5 559.5,515.5 563.5,515.5C 563.5,519.5 563.5,523.5 563.5,527.5C 567.5,527.5 571.5,527.5 575.5,527.5C 579.5,527.5 583.5,527.5 587.5,527.5C 587.5,535.5 587.5,543.5 587.5,551.5C 579.5,551.5 571.5,551.5 563.5,551.5C 563.5,555.5 563.5,559.5 563.5,563.5C 551.5,563.5 539.5,563.5 527.5,563.5C 527.5,559.5 527.5,555.5 527.5,551.5C 523.5,551.5 519.5,551.5 515.5,551.5C 515.5,543.5 515.5,535.5 515.5,527.5C 511.5,527.5 507.5,527.5 503.5,527.5C 503.5,531.5 503.5,535.5 503.5,539.5C 495.5,539.5 487.5,539.5 479.5,539.5C 479.5,531.5 479.5,523.5 479.5,515.5C 483.5,515.5 487.5,515.5 491.5,515.5C 491.5,511.5 491.5,507.5 491.5,503.5 Z"/></g>
<g><path style="opacity:1" fill="#000000" d="M 551.5,503.5 C 567.5,503.5 583.5,503.5 599.5,503.5C 599.5,507.5 599.5,511.5 599.5,515.5C 595.5,515.5 591.5,515.5 587.5,515.5C 587.5,519.5 587.5,523.5 587.5,527.5C 583.5,527.5 579.5,527.5 575.5,527.5C 571.5,527.5 567.5,527.5 563.5,527.5C 563.5,523.5 563.5,519.5 563.5,515.5C 559.5,515.5 555.5,515.5 551.5,515.5C 551.5,511.5 551.5,507.5 551.5,503.5 Z"/></g>
<g><path style="opacity:1" fill="#be360b" d="M 599.5,503.5 C 607.5,503.5 615.5,503.5 623.5,503.5C 623.5,507.5 623.5,511.5 623.5,515.5C 615.5,515.5 607.5,515.5 599.5,515.5C 599.5,511.5 599.5,507.5 599.5,503.5 Z"/></g>
<g><path style="opacity:1" fill="#fead5f" d="M 647.5,503.5 C 647.5,507.5 647.5,511.5 647.5,515.5C 643.5,515.5 639.5,515.5 635.5,515.5C 635.5,511.5 635.5,507.5 635.5,503.5C 639.5,503.5 643.5,503.5 647.5,503.5 Z"/></g>
<g><path style="opacity:1" fill="#000000" d="M 647.5,503.5 C 651.5,503.5 655.5,503.5 659.5,503.5C 659.5,511.5 659.5,519.5 659.5,527.5C 655.5,527.5 651.5,527.5 647.5,527.5C 647.5,523.5 647.5,519.5 647.5,515.5C 647.5,511.5 647.5,507.5 647.5,503.5 Z"/></g>
<g><path style="opacity:1" fill="#00afff" d="M 659.5,503.5 C 663.5,503.5 667.5,503.5 671.5,503.5C 671.5,511.5 671.5,519.5 671.5,527.5C 667.5,527.5 663.5,527.5 659.5,527.5C 659.5,519.5 659.5,511.5 659.5,503.5 Z"/></g>
<g><path style="opacity:1" fill="#00afff" d="M 443.5,515.5 C 443.5,527.5 443.5,539.5 443.5,551.5C 439.5,551.5 435.5,551.5 431.5,551.5C 431.5,539.5 431.5,527.5 431.5,515.5C 435.5,515.5 439.5,515.5 443.5,515.5 Z"/></g>
<g><path style="opacity:1" fill="#000000" d="M 443.5,515.5 C 447.5,515.5 451.5,515.5 455.5,515.5C 455.5,523.5 455.5,531.5 455.5,539.5C 455.5,543.5 455.5,547.5 455.5,551.5C 451.5,551.5 447.5,551.5 443.5,551.5C 443.5,539.5 443.5,527.5 443.5,515.5 Z"/></g>
<g><path style="opacity:1" fill="#fead5f" d="M 455.5,515.5 C 459.5,515.5 463.5,515.5 467.5,515.5C 467.5,523.5 467.5,531.5 467.5,539.5C 463.5,539.5 459.5,539.5 455.5,539.5C 455.5,531.5 455.5,523.5 455.5,515.5 Z"/></g>
<g><path style="opacity:1" fill="#be360b" d="M 467.5,515.5 C 471.5,515.5 475.5,515.5 479.5,515.5C 479.5,523.5 479.5,531.5 479.5,539.5C 487.5,539.5 495.5,539.5 503.5,539.5C 503.5,535.5 503.5,531.5 503.5,527.5C 507.5,527.5 511.5,527.5 515.5,527.5C 515.5,535.5 515.5,543.5 515.5,551.5C 519.5,551.5 523.5,551.5 527.5,551.5C 527.5,555.5 527.5,559.5 527.5,563.5C 519.5,563.5 511.5,563.5 503.5,563.5C 503.5,567.5 503.5,571.5 503.5,575.5C 499.5,575.5 495.5,575.5 491.5,575.5C 491.5,567.5 491.5,559.5 491.5,551.5C 483.5,551.5 475.5,551.5 467.5,551.5C 467.5,563.5 467.5,575.5 467.5,587.5C 467.5,591.5 467.5,595.5 467.5,599.5C 463.5,599.5 459.5,599.5 455.5,599.5C 455.5,583.5 455.5,567.5 455.5,551.5C 455.5,547.5 455.5,543.5 455.5,539.5C 459.5,539.5 463.5,539.5 467.5,539.5C 467.5,531.5 467.5,523.5 467.5,515.5 Z"/></g>
<g><path style="opacity:1" fill="#be360b" d="M 563.5,515.5 C 567.5,515.5 571.5,515.5 575.5,515.5C 575.5,519.5 575.5,523.5 575.5,527.5C 575.5,523.5 575.5,519.5 575.5,515.5C 571.5,515.5 567.5,515.5 563.5,515.5 Z"/></g>
<g><path style="opacity:1" fill="#fead5f" d="M 599.5,515.5 C 607.5,515.5 615.5,515.5 623.5,515.5C 627.5,515.5 631.5,515.5 635.5,515.5C 635.5,531.5 635.5,547.5 635.5,563.5C 627.5,563.5 619.5,563.5 611.5,563.5C 611.5,559.5 611.5,555.5 611.5,551.5C 607.5,551.5 603.5,551.5 599.5,551.5C 599.5,543.5 599.5,535.5 599.5,527.5C 595.5,527.5 591.5,527.5 587.5,527.5C 587.5,523.5 587.5,519.5 587.5,515.5C 591.5,515.5 595.5,515.5 599.5,515.5 Z"/></g>
<g><path style="opacity:1" fill="#be360b" d="M 635.5,515.5 C 639.5,515.5 643.5,515.5 647.5,515.5C 647.5,519.5 647.5,523.5 647.5,527.5C 647.5,535.5 647.5,543.5 647.5,551.5C 651.5,551.5 655.5,551.5 659.5,551.5C 659.5,555.5 659.5,559.5 659.5,563.5C 651.5,563.5 643.5,563.5 635.5,563.5C 635.5,547.5 635.5,531.5 635.5,515.5 Z"/></g>
<g><path style="opacity:1" fill="#be360b" d="M 587.5,527.5 C 591.5,527.5 595.5,527.5 599.5,527.5C 599.5,535.5 599.5,543.5 599.5,551.5C 603.5,551.5 607.5,551.5 611.5,551.5C 611.5,555.5 611.5,559.5 611.5,563.5C 595.5,563.5 579.5,563.5 563.5,563.5C 563.5,559.5 563.5,555.5 563.5,551.5C 571.5,551.5 579.5,551.5 587.5,551.5C 587.5,543.5 587.5,535.5 587.5,527.5 Z"/></g>
<g><path style="opacity:1" fill="#fead5f" d="M 647.5,527.5 C 651.5,527.5 655.5,527.5 659.5,527.5C 659.5,535.5 659.5,543.5 659.5,551.5C 655.5,551.5 651.5,551.5 647.5,551.5C 647.5,543.5 647.5,535.5 647.5,527.5 Z"/></g>
<g><path style="opacity:1" fill="#000000" d="M 659.5,527.5 C 663.5,527.5 667.5,527.5 671.5,527.5C 671.5,539.5 671.5,551.5 671.5,563.5C 667.5,563.5 663.5,563.5 659.5,563.5C 659.5,559.5 659.5,555.5 659.5,551.5C 659.5,543.5 659.5,535.5 659.5,527.5 Z"/></g>
<g><path style="opacity:1" fill="#00afff" d="M 671.5,527.5 C 675.5,527.5 679.5,527.5 683.5,527.5C 683.5,539.5 683.5,551.5 683.5,563.5C 679.5,563.5 675.5,563.5 671.5,563.5C 671.5,551.5 671.5,539.5 671.5,527.5 Z"/></g>
<g><path style="opacity:1" fill="#00afff" d="M 431.5,551.5 C 431.5,559.5 431.5,567.5 431.5,575.5C 427.5,575.5 423.5,575.5 419.5,575.5C 419.5,567.5 419.5,559.5 419.5,551.5C 423.5,551.5 427.5,551.5 431.5,551.5 Z"/></g>
<g><path style="opacity:1" fill="#000000" d="M 431.5,551.5 C 435.5,551.5 439.5,551.5 443.5,551.5C 443.5,559.5 443.5,567.5 443.5,575.5C 439.5,575.5 435.5,575.5 431.5,575.5C 431.5,567.5 431.5,559.5 431.5,551.5 Z"/></g>
<g><path style="opacity:1" fill="#fead5f" d="M 443.5,551.5 C 447.5,551.5 451.5,551.5 455.5,551.5C 455.5,567.5 455.5,583.5 455.5,599.5C 455.5,603.5 455.5,607.5 455.5,611.5C 447.5,611.5 439.5,611.5 431.5,611.5C 431.5,599.5 431.5,587.5 431.5,575.5C 435.5,575.5 439.5,575.5 443.5,575.5C 443.5,567.5 443.5,559.5 443.5,551.5 Z"/></g>
<g><path style="opacity:1" fill="#fead5f" d="M 491.5,575.5 C 487.5,575.5 483.5,575.5 479.5,575.5C 479.5,579.5 479.5,583.5 479.5,587.5C 475.5,587.5 471.5,587.5 467.5,587.5C 467.5,575.5 467.5,563.5 467.5,551.5C 475.5,551.5 483.5,551.5 491.5,551.5C 491.5,559.5 491.5,567.5 491.5,575.5 Z"/></g>
<g><path style="opacity:1" fill="#fead5f" d="M 527.5,563.5 C 527.5,567.5 527.5,571.5 527.5,575.5C 539.5,575.5 551.5,575.5 563.5,575.5C 563.5,571.5 563.5,567.5 563.5,563.5C 579.5,563.5 595.5,563.5 611.5,563.5C 611.5,567.5 611.5,571.5 611.5,575.5C 603.5,575.5 595.5,575.5 587.5,575.5C 587.5,583.5 587.5,591.5 587.5,599.5C 583.5,599.5 579.5,599.5 575.5,599.5C 571.5,599.5 567.5,599.5 563.5,599.5C 563.5,595.5 563.5,591.5 563.5,587.5C 559.5,587.5 555.5,587.5 551.5,587.5C 539.5,587.5 527.5,587.5 515.5,587.5C 511.5,587.5 507.5,587.5 503.5,587.5C 503.5,583.5 503.5,579.5 503.5,575.5C 503.5,571.5 503.5,567.5 503.5,563.5C 511.5,563.5 519.5,563.5 527.5,563.5 Z"/></g>
<g><path style="opacity:1" fill="#be360b" d="M 527.5,563.5 C 539.5,563.5 551.5,563.5 563.5,563.5C 563.5,567.5 563.5,571.5 563.5,575.5C 551.5,575.5 539.5,575.5 527.5,575.5C 527.5,571.5 527.5,567.5 527.5,563.5 Z"/></g>
<g><path style="opacity:1" fill="#be360b" d="M 611.5,563.5 C 619.5,563.5 627.5,563.5 635.5,563.5C 635.5,571.5 635.5,579.5 635.5,587.5C 631.5,587.5 627.5,587.5 623.5,587.5C 623.5,583.5 623.5,579.5 623.5,575.5C 619.5,575.5 615.5,575.5 611.5,575.5C 611.5,571.5 611.5,567.5 611.5,563.5 Z"/></g>
<g><path style="opacity:1" fill="#fead5f" d="M 635.5,563.5 C 643.5,563.5 651.5,563.5 659.5,563.5C 663.5,563.5 667.5,563.5 671.5,563.5C 671.5,575.5 671.5,587.5 671.5,599.5C 663.5,599.5 655.5,599.5 647.5,599.5C 647.5,595.5 647.5,591.5 647.5,587.5C 643.5,587.5 639.5,587.5 635.5,587.5C 635.5,579.5 635.5,571.5 635.5,563.5 Z"/></g>
<g><path style="opacity:1" fill="#000000" d="M 671.5,563.5 C 675.5,563.5 679.5,563.5 683.5,563.5C 683.5,599.5 683.5,635.5 683.5,671.5C 679.5,671.5 675.5,671.5 671.5,671.5C 671.5,655.5 671.5,639.5 671.5,623.5C 671.5,615.5 671.5,607.5 671.5,599.5C 671.5,587.5 671.5,575.5 671.5,563.5 Z"/></g>
<g><path style="opacity:1" fill="#00afff" d="M 683.5,563.5 C 687.5,563.5 691.5,563.5 695.5,563.5C 695.5,599.5 695.5,635.5 695.5,671.5C 691.5,671.5 687.5,671.5 683.5,671.5C 683.5,635.5 683.5,599.5 683.5,563.5 Z"/></g>
<g><path style="opacity:1" fill="#00afff" d="M 419.5,575.5 C 419.5,607.5 419.5,639.5 419.5,671.5C 415.5,671.5 411.5,671.5 407.5,671.5C 407.5,639.5 407.5,607.5 407.5,575.5C 411.5,575.5 415.5,575.5 419.5,575.5 Z"/></g>
<g><path style="opacity:1" fill="#000000" d="M 419.5,575.5 C 423.5,575.5 427.5,575.5 431.5,575.5C 431.5,587.5 431.5,599.5 431.5,611.5C 431.5,619.5 431.5,627.5 431.5,635.5C 431.5,647.5 431.5,659.5 431.5,671.5C 427.5,671.5 423.5,671.5 419.5,671.5C 419.5,639.5 419.5,607.5 419.5,575.5 Z"/></g>
<g><path style="opacity:1" fill="#000000" d="M 491.5,575.5 C 495.5,575.5 499.5,575.5 503.5,575.5C 503.5,579.5 503.5,583.5 503.5,587.5C 495.5,587.5 487.5,587.5 479.5,587.5C 479.5,583.5 479.5,579.5 479.5,575.5C 483.5,575.5 487.5,575.5 491.5,575.5 Z"/></g>
<g><path style="opacity:1" fill="#be360b" d="M 611.5,575.5 C 611.5,579.5 611.5,583.5 611.5,587.5C 607.5,587.5 603.5,587.5 599.5,587.5C 599.5,591.5 599.5,595.5 599.5,599.5C 595.5,599.5 591.5,599.5 587.5,599.5C 587.5,591.5 587.5,583.5 587.5,575.5C 595.5,575.5 603.5,575.5 611.5,575.5 Z"/></g>
<g><path style="opacity:1" fill="#fead5f" d="M 611.5,575.5 C 615.5,575.5 619.5,575.5 623.5,575.5C 623.5,579.5 623.5,583.5 623.5,587.5C 619.5,587.5 615.5,587.5 611.5,587.5C 611.5,583.5 611.5,579.5 611.5,575.5 Z"/></g>
<g><path style="opacity:1" fill="#000000" d="M 467.5,587.5 C 471.5,587.5 475.5,587.5 479.5,587.5C 479.5,591.5 479.5,595.5 479.5,599.5C 475.5,599.5 471.5,599.5 467.5,599.5C 467.5,595.5 467.5,591.5 467.5,587.5 Z"/></g>
<g><path style="opacity:1" fill="#00afff" d="M 479.5,587.5 C 487.5,587.5 495.5,587.5 503.5,587.5C 503.5,595.5 503.5,603.5 503.5,611.5C 499.5,611.5 495.5,611.5 491.5,611.5C 491.5,607.5 491.5,603.5 491.5,599.5C 487.5,599.5 483.5,599.5 479.5,599.5C 479.5,595.5 479.5,591.5 479.5,587.5 Z"/></g>
<g><path style="opacity:1" fill="#000000" d="M 503.5,587.5 C 507.5,587.5 511.5,587.5 515.5,587.5C 515.5,591.5 515.5,595.5 515.5,599.5C 523.5,599.5 531.5,599.5 539.5,599.5C 539.5,607.5 539.5,615.5 539.5,623.5C 535.5,623.5 531.5,623.5 527.5,623.5C 527.5,619.5 527.5,615.5 527.5,611.5C 519.5,611.5 511.5,611.5 503.5,611.5C 503.5,603.5 503.5,595.5 503.5,587.5 Z"/></g>
<g><path style="opacity:1" fill="#fe5721" d="M 515.5,587.5 C 527.5,587.5 539.5,587.5 551.5,587.5C 551.5,591.5 551.5,595.5 551.5,599.5C 547.5,599.5 543.5,599.5 539.5,599.5C 531.5,599.5 523.5,599.5 515.5,599.5C 515.5,595.5 515.5,591.5 515.5,587.5 Z"/></g>
<g><path style="opacity:1" fill="#f34335" d="M 551.5,587.5 C 555.5,587.5 559.5,587.5 563.5,587.5C 563.5,591.5 563.5,595.5 563.5,599.5C 559.5,599.5 555.5,599.5 551.5,599.5C 551.5,595.5 551.5,591.5 551.5,587.5 Z"/></g>
<g><path style="opacity:1" fill="#fead5f" d="M 611.5,587.5 C 611.5,591.5 611.5,595.5 611.5,599.5C 607.5,599.5 603.5,599.5 599.5,599.5C 599.5,595.5 599.5,591.5 599.5,587.5C 603.5,587.5 607.5,587.5 611.5,587.5 Z"/></g>
<g><path style="opacity:1" fill="#fe5721" d="M 611.5,587.5 C 615.5,587.5 619.5,587.5 623.5,587.5C 627.5,587.5 631.5,587.5 635.5,587.5C 635.5,591.5 635.5,595.5 635.5,599.5C 627.5,599.5 619.5,599.5 611.5,599.5C 611.5,595.5 611.5,591.5 611.5,587.5 Z"/></g>
<g><path style="opacity:1" fill="#000000" d="M 635.5,587.5 C 639.5,587.5 643.5,587.5 647.5,587.5C 647.5,591.5 647.5,595.5 647.5,599.5C 647.5,607.5 647.5,615.5 647.5,623.5C 643.5,623.5 639.5,623.5 635.5,623.5C 635.5,619.5 635.5,615.5 635.5,611.5C 631.5,611.5 627.5,611.5 623.5,611.5C 623.5,615.5 623.5,619.5 623.5,623.5C 619.5,623.5 615.5,623.5 611.5,623.5C 611.5,619.5 611.5,615.5 611.5,611.5C 611.5,607.5 611.5,603.5 611.5,599.5C 619.5,599.5 627.5,599.5 635.5,599.5C 635.5,595.5 635.5,591.5 635.5,587.5 Z"/></g>
<g><path style="opacity:1" fill="#000000" d="M 455.5,599.5 C 459.5,599.5 463.5,599.5 467.5,599.5C 467.5,607.5 467.5,615.5 467.5,623.5C 471.5,623.5 475.5,623.5 479.5,623.5C 479.5,627.5 479.5,631.5 479.5,635.5C 471.5,635.5 463.5,635.5 455.5,635.5C 455.5,627.5 455.5,619.5 455.5,611.5C 455.5,607.5 455.5,603.5 455.5,599.5 Z"/></g>
<g><path style="opacity:1" fill="#00afff" d="M 467.5,599.5 C 471.5,599.5 475.5,599.5 479.5,599.5C 479.5,607.5 479.5,615.5 479.5,623.5C 475.5,623.5 471.5,623.5 467.5,623.5C 467.5,615.5 467.5,607.5 467.5,599.5 Z"/></g>
<g><path style="opacity:1" fill="#3f51b5" d="M 539.5,599.5 C 543.5,599.5 547.5,599.5 551.5,599.5C 551.5,603.5 551.5,607.5 551.5,611.5C 559.5,611.5 567.5,611.5 575.5,611.5C 583.5,611.5 591.5,611.5 599.5,611.5C 603.5,611.5 607.5,611.5 611.5,611.5C 611.5,615.5 611.5,619.5 611.5,623.5C 611.5,627.5 611.5,631.5 611.5,635.5C 607.5,635.5 603.5,635.5 599.5,635.5C 595.5,635.5 591.5,635.5 587.5,635.5C 583.5,635.5 579.5,635.5 575.5,635.5C 567.5,635.5 559.5,635.5 551.5,635.5C 551.5,631.5 551.5,627.5 551.5,623.5C 547.5,623.5 543.5,623.5 539.5,623.5C 539.5,615.5 539.5,607.5 539.5,599.5 Z"/></g>
<g><path style="opacity:1" fill="#fe5721" d="M 551.5,599.5 C 555.5,599.5 559.5,599.5 563.5,599.5C 567.5,599.5 571.5,599.5 575.5,599.5C 575.5,603.5 575.5,607.5 575.5,611.5C 567.5,611.5 559.5,611.5 551.5,611.5C 551.5,607.5 551.5,603.5 551.5,599.5 Z"/></g>
<g><path style="opacity:1" fill="#f34335" d="M 575.5,599.5 C 579.5,599.5 583.5,599.5 587.5,599.5C 591.5,599.5 595.5,599.5 599.5,599.5C 599.5,603.5 599.5,607.5 599.5,611.5C 591.5,611.5 583.5,611.5 575.5,611.5C 575.5,607.5 575.5,603.5 575.5,599.5 Z"/></g>
<g><path style="opacity:1" fill="#fe5721" d="M 599.5,599.5 C 603.5,599.5 607.5,599.5 611.5,599.5C 611.5,603.5 611.5,607.5 611.5,611.5C 607.5,611.5 603.5,611.5 599.5,611.5C 599.5,607.5 599.5,603.5 599.5,599.5 Z"/></g>
<g><path style="opacity:1" fill="#3f51b5" d="M 647.5,599.5 C 655.5,599.5 663.5,599.5 671.5,599.5C 671.5,607.5 671.5,615.5 671.5,623.5C 663.5,623.5 655.5,623.5 647.5,623.5C 647.5,615.5 647.5,607.5 647.5,599.5 Z"/></g>
<g><path style="opacity:1" fill="#3f51b5" d="M 431.5,611.5 C 439.5,611.5 447.5,611.5 455.5,611.5C 455.5,619.5 455.5,627.5 455.5,635.5C 447.5,635.5 439.5,635.5 431.5,635.5C 431.5,627.5 431.5,619.5 431.5,611.5 Z"/></g>
<g><path style="opacity:1" fill="#00afff" d="M 503.5,611.5 C 511.5,611.5 519.5,611.5 527.5,611.5C 527.5,615.5 527.5,619.5 527.5,623.5C 523.5,623.5 519.5,623.5 515.5,623.5C 515.5,631.5 515.5,639.5 515.5,647.5C 507.5,647.5 499.5,647.5 491.5,647.5C 491.5,643.5 491.5,639.5 491.5,635.5C 495.5,635.5 499.5,635.5 503.5,635.5C 503.5,627.5 503.5,619.5 503.5,611.5 Z"/></g>
<g><path style="opacity:1" fill="#00afff" d="M 635.5,623.5 C 631.5,623.5 627.5,623.5 623.5,623.5C 623.5,619.5 623.5,615.5 623.5,611.5C 627.5,611.5 631.5,611.5 635.5,611.5C 635.5,615.5 635.5,619.5 635.5,623.5 Z"/></g>
<g><path style="opacity:1" fill="#00afff" d="M 479.5,623.5 C 483.5,623.5 487.5,623.5 491.5,623.5C 491.5,627.5 491.5,631.5 491.5,635.5C 487.5,635.5 483.5,635.5 479.5,635.5C 479.5,631.5 479.5,627.5 479.5,623.5 Z"/></g>
<g><path style="opacity:1" fill="#000000" d="M 527.5,623.5 C 527.5,631.5 527.5,639.5 527.5,647.5C 523.5,647.5 519.5,647.5 515.5,647.5C 515.5,639.5 515.5,631.5 515.5,623.5C 519.5,623.5 523.5,623.5 527.5,623.5 Z"/></g>
<g><path style="opacity:1" fill="#fe5721" d="M 527.5,623.5 C 531.5,623.5 535.5,623.5 539.5,623.5C 539.5,631.5 539.5,639.5 539.5,647.5C 535.5,647.5 531.5,647.5 527.5,647.5C 527.5,639.5 527.5,631.5 527.5,623.5 Z"/></g>
<g><path style="opacity:1" fill="#e43934" d="M 539.5,623.5 C 543.5,623.5 547.5,623.5 551.5,623.5C 551.5,627.5 551.5,631.5 551.5,635.5C 551.5,639.5 551.5,643.5 551.5,647.5C 547.5,647.5 543.5,647.5 539.5,647.5C 539.5,639.5 539.5,631.5 539.5,623.5 Z"/></g>
<g><path style="opacity:1" fill="#fe5721" d="M 611.5,623.5 C 615.5,623.5 619.5,623.5 623.5,623.5C 623.5,631.5 623.5,639.5 623.5,647.5C 623.5,655.5 623.5,663.5 623.5,671.5C 627.5,671.5 631.5,671.5 635.5,671.5C 639.5,671.5 643.5,671.5 647.5,671.5C 647.5,675.5 647.5,679.5 647.5,683.5C 647.5,687.5 647.5,691.5 647.5,695.5C 643.5,695.5 639.5,695.5 635.5,695.5C 635.5,691.5 635.5,687.5 635.5,683.5C 627.5,683.5 619.5,683.5 611.5,683.5C 611.5,667.5 611.5,651.5 611.5,635.5C 611.5,631.5 611.5,627.5 611.5,623.5 Z"/></g>
<g><path style="opacity:1" fill="#000000" d="M 623.5,623.5 C 627.5,623.5 631.5,623.5 635.5,623.5C 635.5,627.5 635.5,631.5 635.5,635.5C 635.5,639.5 635.5,643.5 635.5,647.5C 631.5,647.5 627.5,647.5 623.5,647.5C 623.5,639.5 623.5,631.5 623.5,623.5 Z"/></g>
<g><path style="opacity:1" fill="#fead5f" d="M 635.5,623.5 C 639.5,623.5 643.5,623.5 647.5,623.5C 655.5,623.5 663.5,623.5 671.5,623.5C 671.5,639.5 671.5,655.5 671.5,671.5C 663.5,671.5 655.5,671.5 647.5,671.5C 647.5,667.5 647.5,663.5 647.5,659.5C 651.5,659.5 655.5,659.5 659.5,659.5C 659.5,651.5 659.5,643.5 659.5,635.5C 655.5,635.5 651.5,635.5 647.5,635.5C 643.5,635.5 639.5,635.5 635.5,635.5C 635.5,631.5 635.5,627.5 635.5,623.5 Z"/></g>
<g><path style="opacity:1" fill="#fead5f" d="M 431.5,635.5 C 439.5,635.5 447.5,635.5 455.5,635.5C 463.5,635.5 471.5,635.5 479.5,635.5C 479.5,639.5 479.5,643.5 479.5,647.5C 475.5,647.5 471.5,647.5 467.5,647.5C 463.5,647.5 459.5,647.5 455.5,647.5C 455.5,655.5 455.5,663.5 455.5,671.5C 459.5,671.5 463.5,671.5 467.5,671.5C 471.5,671.5 475.5,671.5 479.5,671.5C 479.5,675.5 479.5,679.5 479.5,683.5C 467.5,683.5 455.5,683.5 443.5,683.5C 443.5,679.5 443.5,675.5 443.5,671.5C 439.5,671.5 435.5,671.5 431.5,671.5C 431.5,659.5 431.5,647.5 431.5,635.5 Z"/></g>
<g><path style="opacity:1" fill="#000000" d="M 479.5,635.5 C 483.5,635.5 487.5,635.5 491.5,635.5C 491.5,639.5 491.5,643.5 491.5,647.5C 487.5,647.5 483.5,647.5 479.5,647.5C 479.5,643.5 479.5,639.5 479.5,635.5 Z"/></g>
<g><path style="opacity:1" fill="#fe5721" d="M 551.5,635.5 C 559.5,635.5 567.5,635.5 575.5,635.5C 575.5,655.5 575.5,675.5 575.5,695.5C 571.5,695.5 567.5,695.5 563.5,695.5C 563.5,691.5 563.5,687.5 563.5,683.5C 559.5,683.5 555.5,683.5 551.5,683.5C 551.5,687.5 551.5,691.5 551.5,695.5C 547.5,695.5 543.5,695.5 539.5,695.5C 539.5,699.5 539.5,703.5 539.5,707.5C 535.5,707.5 531.5,707.5 527.5,707.5C 527.5,691.5 527.5,675.5 527.5,659.5C 531.5,659.5 535.5,659.5 539.5,659.5C 539.5,655.5 539.5,651.5 539.5,647.5C 543.5,647.5 547.5,647.5 551.5,647.5C 551.5,643.5 551.5,639.5 551.5,635.5 Z"/></g>
<g><path style="opacity:1" fill="#e43934" d="M 575.5,635.5 C 579.5,635.5 583.5,635.5 587.5,635.5C 587.5,655.5 587.5,675.5 587.5,695.5C 583.5,695.5 579.5,695.5 575.5,695.5C 575.5,675.5 575.5,655.5 575.5,635.5 Z"/></g>
<g><path style="opacity:1" fill="#fe5721" d="M 587.5,635.5 C 591.5,635.5 595.5,635.5 599.5,635.5C 599.5,655.5 599.5,675.5 599.5,695.5C 595.5,695.5 591.5,695.5 587.5,695.5C 587.5,675.5 587.5,655.5 587.5,635.5 Z"/></g>
<g><path style="opacity:1" fill="#785547" d="M 599.5,635.5 C 603.5,635.5 607.5,635.5 611.5,635.5C 611.5,651.5 611.5,667.5 611.5,683.5C 611.5,691.5 611.5,699.5 611.5,707.5C 607.5,707.5 603.5,707.5 599.5,707.5C 599.5,711.5 599.5,715.5 599.5,719.5C 603.5,719.5 607.5,719.5 611.5,719.5C 611.5,723.5 611.5,727.5 611.5,731.5C 619.5,731.5 627.5,731.5 635.5,731.5C 639.5,731.5 643.5,731.5 647.5,731.5C 647.5,727.5 647.5,723.5 647.5,719.5C 651.5,719.5 655.5,719.5 659.5,719.5C 659.5,727.5 659.5,735.5 659.5,743.5C 655.5,743.5 651.5,743.5 647.5,743.5C 647.5,747.5 647.5,751.5 647.5,755.5C 635.5,755.5 623.5,755.5 611.5,755.5C 611.5,751.5 611.5,747.5 611.5,743.5C 607.5,743.5 603.5,743.5 599.5,743.5C 599.5,739.5 599.5,735.5 599.5,731.5C 595.5,731.5 591.5,731.5 587.5,731.5C 587.5,727.5 587.5,723.5 587.5,719.5C 579.5,719.5 571.5,719.5 563.5,719.5C 563.5,715.5 563.5,711.5 563.5,707.5C 567.5,707.5 571.5,707.5 575.5,707.5C 575.5,703.5 575.5,699.5 575.5,695.5C 579.5,695.5 583.5,695.5 587.5,695.5C 591.5,695.5 595.5,695.5 599.5,695.5C 599.5,675.5 599.5,655.5 599.5,635.5 Z"/></g>
<g><path style="opacity:1" fill="#be360b" d="M 635.5,635.5 C 639.5,635.5 643.5,635.5 647.5,635.5C 647.5,639.5 647.5,643.5 647.5,647.5C 643.5,647.5 639.5,647.5 635.5,647.5C 635.5,643.5 635.5,639.5 635.5,635.5 Z"/></g>
<g><path style="opacity:1" fill="#000000" d="M 647.5,635.5 C 651.5,635.5 655.5,635.5 659.5,635.5C 659.5,643.5 659.5,651.5 659.5,659.5C 655.5,659.5 651.5,659.5 647.5,659.5C 647.5,663.5 647.5,667.5 647.5,671.5C 643.5,671.5 639.5,671.5 635.5,671.5C 635.5,663.5 635.5,655.5 635.5,647.5C 639.5,647.5 643.5,647.5 647.5,647.5C 647.5,643.5 647.5,639.5 647.5,635.5 Z"/></g>
<g><path style="opacity:1" fill="#be360b" d="M 467.5,647.5 C 467.5,655.5 467.5,663.5 467.5,671.5C 463.5,671.5 459.5,671.5 455.5,671.5C 455.5,663.5 455.5,655.5 455.5,647.5C 459.5,647.5 463.5,647.5 467.5,647.5 Z"/></g>
<g><path style="opacity:1" fill="#000000" d="M 467.5,647.5 C 471.5,647.5 475.5,647.5 479.5,647.5C 479.5,655.5 479.5,663.5 479.5,671.5C 475.5,671.5 471.5,671.5 467.5,671.5C 467.5,663.5 467.5,655.5 467.5,647.5 Z"/></g>
<g><path style="opacity:1" fill="#fead5f" d="M 479.5,647.5 C 483.5,647.5 487.5,647.5 491.5,647.5C 491.5,655.5 491.5,663.5 491.5,671.5C 487.5,671.5 483.5,671.5 479.5,671.5C 479.5,663.5 479.5,655.5 479.5,647.5 Z"/></g>
<g><path style="opacity:1" fill="#000000" d="M 491.5,647.5 C 499.5,647.5 507.5,647.5 515.5,647.5C 515.5,651.5 515.5,655.5 515.5,659.5C 511.5,659.5 507.5,659.5 503.5,659.5C 503.5,663.5 503.5,667.5 503.5,671.5C 503.5,675.5 503.5,679.5 503.5,683.5C 499.5,683.5 495.5,683.5 491.5,683.5C 491.5,687.5 491.5,691.5 491.5,695.5C 487.5,695.5 483.5,695.5 479.5,695.5C 475.5,695.5 471.5,695.5 467.5,695.5C 467.5,699.5 467.5,703.5 467.5,707.5C 463.5,707.5 459.5,707.5 455.5,707.5C 455.5,703.5 455.5,699.5 455.5,695.5C 451.5,695.5 447.5,695.5 443.5,695.5C 443.5,691.5 443.5,687.5 443.5,683.5C 455.5,683.5 467.5,683.5 479.5,683.5C 479.5,679.5 479.5,675.5 479.5,671.5C 483.5,671.5 487.5,671.5 491.5,671.5C 491.5,663.5 491.5,655.5 491.5,647.5 Z"/></g>
<g><path style="opacity:1" fill="#fe5721" d="M 515.5,647.5 C 519.5,647.5 523.5,647.5 527.5,647.5C 527.5,651.5 527.5,655.5 527.5,659.5C 523.5,659.5 519.5,659.5 515.5,659.5C 515.5,655.5 515.5,651.5 515.5,647.5 Z"/></g>
<g><path style="opacity:1" fill="#e43934" d="M 527.5,647.5 C 531.5,647.5 535.5,647.5 539.5,647.5C 539.5,651.5 539.5,655.5 539.5,659.5C 535.5,659.5 531.5,659.5 527.5,659.5C 527.5,655.5 527.5,651.5 527.5,647.5 Z"/></g>
<g><path style="opacity:1" fill="#e43934" d="M 623.5,647.5 C 627.5,647.5 631.5,647.5 635.5,647.5C 635.5,655.5 635.5,663.5 635.5,671.5C 631.5,671.5 627.5,671.5 623.5,671.5C 623.5,663.5 623.5,655.5 623.5,647.5 Z"/></g>
<g><path style="opacity:1" fill="#fe5721" d="M 515.5,659.5 C 515.5,663.5 515.5,667.5 515.5,671.5C 511.5,671.5 507.5,671.5 503.5,671.5C 503.5,667.5 503.5,663.5 503.5,659.5C 507.5,659.5 511.5,659.5 515.5,659.5 Z"/></g>
<g><path style="opacity:1" fill="#e43934" d="M 515.5,659.5 C 519.5,659.5 523.5,659.5 527.5,659.5C 527.5,675.5 527.5,691.5 527.5,707.5C 531.5,707.5 535.5,707.5 539.5,707.5C 539.5,711.5 539.5,715.5 539.5,719.5C 531.5,719.5 523.5,719.5 515.5,719.5C 515.5,723.5 515.5,727.5 515.5,731.5C 523.5,731.5 531.5,731.5 539.5,731.5C 539.5,735.5 539.5,739.5 539.5,743.5C 527.5,743.5 515.5,743.5 503.5,743.5C 503.5,731.5 503.5,719.5 503.5,707.5C 503.5,699.5 503.5,691.5 503.5,683.5C 503.5,679.5 503.5,675.5 503.5,671.5C 507.5,671.5 511.5,671.5 515.5,671.5C 515.5,667.5 515.5,663.5 515.5,659.5 Z"/></g>
<g><path style="opacity:1" fill="#00afff" d="M 419.5,671.5 C 423.5,671.5 427.5,671.5 431.5,671.5C 431.5,675.5 431.5,679.5 431.5,683.5C 427.5,683.5 423.5,683.5 419.5,683.5C 419.5,679.5 419.5,675.5 419.5,671.5 Z"/></g>
<g><path style="opacity:1" fill="#000000" d="M 431.5,671.5 C 435.5,671.5 439.5,671.5 443.5,671.5C 443.5,675.5 443.5,679.5 443.5,683.5C 439.5,683.5 435.5,683.5 431.5,683.5C 431.5,679.5 431.5,675.5 431.5,671.5 Z"/></g>
<g><path style="opacity:1" fill="#000000" d="M 647.5,671.5 C 655.5,671.5 663.5,671.5 671.5,671.5C 671.5,675.5 671.5,679.5 671.5,683.5C 667.5,683.5 663.5,683.5 659.5,683.5C 655.5,683.5 651.5,683.5 647.5,683.5C 647.5,679.5 647.5,675.5 647.5,671.5 Z"/></g>
<g><path style="opacity:1" fill="#00afff" d="M 671.5,671.5 C 675.5,671.5 679.5,671.5 683.5,671.5C 683.5,675.5 683.5,679.5 683.5,683.5C 679.5,683.5 675.5,683.5 671.5,683.5C 671.5,679.5 671.5,675.5 671.5,671.5 Z"/></g>
<g><path style="opacity:1" fill="#00afff" d="M 431.5,683.5 C 435.5,683.5 439.5,683.5 443.5,683.5C 443.5,687.5 443.5,691.5 443.5,695.5C 439.5,695.5 435.5,695.5 431.5,695.5C 431.5,691.5 431.5,687.5 431.5,683.5 Z"/></g>
<g><path style="opacity:1" fill="#feeb3a" d="M 503.5,683.5 C 503.5,691.5 503.5,699.5 503.5,707.5C 499.5,707.5 495.5,707.5 491.5,707.5C 491.5,703.5 491.5,699.5 491.5,695.5C 491.5,691.5 491.5,687.5 491.5,683.5C 495.5,683.5 499.5,683.5 503.5,683.5 Z"/></g>
<g><path style="opacity:1" fill="#e43934" d="M 563.5,695.5 C 559.5,695.5 555.5,695.5 551.5,695.5C 551.5,691.5 551.5,687.5 551.5,683.5C 555.5,683.5 559.5,683.5 563.5,683.5C 563.5,687.5 563.5,691.5 563.5,695.5 Z"/></g>
<g><path style="opacity:1" fill="#e43934" d="M 611.5,683.5 C 619.5,683.5 627.5,683.5 635.5,683.5C 635.5,687.5 635.5,691.5 635.5,695.5C 635.5,699.5 635.5,703.5 635.5,707.5C 639.5,707.5 643.5,707.5 647.5,707.5C 647.5,711.5 647.5,715.5 647.5,719.5C 647.5,723.5 647.5,727.5 647.5,731.5C 643.5,731.5 639.5,731.5 635.5,731.5C 635.5,727.5 635.5,723.5 635.5,719.5C 631.5,719.5 627.5,719.5 623.5,719.5C 623.5,715.5 623.5,711.5 623.5,707.5C 619.5,707.5 615.5,707.5 611.5,707.5C 611.5,699.5 611.5,691.5 611.5,683.5 Z"/></g>
<g><path style="opacity:1" fill="#e43934" d="M 647.5,683.5 C 651.5,683.5 655.5,683.5 659.5,683.5C 659.5,687.5 659.5,691.5 659.5,695.5C 655.5,695.5 651.5,695.5 647.5,695.5C 647.5,691.5 647.5,687.5 647.5,683.5 Z"/></g>
<g><path style="opacity:1" fill="#00afff" d="M 659.5,683.5 C 663.5,683.5 667.5,683.5 671.5,683.5C 671.5,687.5 671.5,691.5 671.5,695.5C 667.5,695.5 663.5,695.5 659.5,695.5C 659.5,691.5 659.5,687.5 659.5,683.5 Z"/></g>
<g><path style="opacity:1" fill="#00afff" d="M 443.5,695.5 C 447.5,695.5 451.5,695.5 455.5,695.5C 455.5,699.5 455.5,703.5 455.5,707.5C 455.5,711.5 455.5,715.5 455.5,719.5C 451.5,719.5 447.5,719.5 443.5,719.5C 443.5,711.5 443.5,703.5 443.5,695.5 Z"/></g>
<g><path style="opacity:1" fill="#e43934" d="M 479.5,695.5 C 479.5,703.5 479.5,711.5 479.5,719.5C 471.5,719.5 463.5,719.5 455.5,719.5C 455.5,715.5 455.5,711.5 455.5,707.5C 459.5,707.5 463.5,707.5 467.5,707.5C 467.5,703.5 467.5,699.5 467.5,695.5C 471.5,695.5 475.5,695.5 479.5,695.5 Z"/></g>
<g><path style="opacity:1" fill="#785547" d="M 479.5,695.5 C 483.5,695.5 487.5,695.5 491.5,695.5C 491.5,699.5 491.5,703.5 491.5,707.5C 491.5,719.5 491.5,731.5 491.5,743.5C 491.5,747.5 491.5,751.5 491.5,755.5C 495.5,755.5 499.5,755.5 503.5,755.5C 503.5,751.5 503.5,747.5 503.5,743.5C 515.5,743.5 527.5,743.5 539.5,743.5C 539.5,747.5 539.5,751.5 539.5,755.5C 535.5,755.5 531.5,755.5 527.5,755.5C 527.5,759.5 527.5,763.5 527.5,767.5C 511.5,767.5 495.5,767.5 479.5,767.5C 479.5,763.5 479.5,759.5 479.5,755.5C 475.5,755.5 471.5,755.5 467.5,755.5C 467.5,747.5 467.5,739.5 467.5,731.5C 463.5,731.5 459.5,731.5 455.5,731.5C 455.5,727.5 455.5,723.5 455.5,719.5C 463.5,719.5 471.5,719.5 479.5,719.5C 479.5,711.5 479.5,703.5 479.5,695.5 Z"/></g>
<g><path style="opacity:1" fill="#e43934" d="M 551.5,695.5 C 551.5,699.5 551.5,703.5 551.5,707.5C 547.5,707.5 543.5,707.5 539.5,707.5C 539.5,703.5 539.5,699.5 539.5,695.5C 543.5,695.5 547.5,695.5 551.5,695.5 Z"/></g>
<g><path style="opacity:1" fill="#fe5721" d="M 551.5,695.5 C 555.5,695.5 559.5,695.5 563.5,695.5C 563.5,699.5 563.5,703.5 563.5,707.5C 559.5,707.5 555.5,707.5 551.5,707.5C 551.5,703.5 551.5,699.5 551.5,695.5 Z"/></g>
<g><path style="opacity:1" fill="#e43934" d="M 563.5,695.5 C 567.5,695.5 571.5,695.5 575.5,695.5C 575.5,699.5 575.5,703.5 575.5,707.5C 571.5,707.5 567.5,707.5 563.5,707.5C 563.5,703.5 563.5,699.5 563.5,695.5 Z"/></g>
<g><path style="opacity:1" fill="#feeb3a" d="M 635.5,695.5 C 639.5,695.5 643.5,695.5 647.5,695.5C 647.5,699.5 647.5,703.5 647.5,707.5C 643.5,707.5 639.5,707.5 635.5,707.5C 635.5,703.5 635.5,699.5 635.5,695.5 Z"/></g>
<g><path style="opacity:1" fill="#fe5721" d="M 647.5,695.5 C 651.5,695.5 655.5,695.5 659.5,695.5C 659.5,699.5 659.5,703.5 659.5,707.5C 655.5,707.5 651.5,707.5 647.5,707.5C 647.5,703.5 647.5,699.5 647.5,695.5 Z"/></g>
<g><path style="opacity:1" fill="#000000" d="M 659.5,695.5 C 663.5,695.5 667.5,695.5 671.5,695.5C 671.5,699.5 671.5,703.5 671.5,707.5C 667.5,707.5 663.5,707.5 659.5,707.5C 659.5,703.5 659.5,699.5 659.5,695.5 Z"/></g>
<g><path style="opacity:1" fill="#00afff" d="M 671.5,695.5 C 675.5,695.5 679.5,695.5 683.5,695.5C 683.5,699.5 683.5,703.5 683.5,707.5C 679.5,707.5 675.5,707.5 671.5,707.5C 671.5,703.5 671.5,699.5 671.5,695.5 Z"/></g>
<g><path style="opacity:1" fill="#fe5721" d="M 491.5,707.5 C 495.5,707.5 499.5,707.5 503.5,707.5C 503.5,719.5 503.5,731.5 503.5,743.5C 499.5,743.5 495.5,743.5 491.5,743.5C 491.5,731.5 491.5,719.5 491.5,707.5 Z"/></g>
<g><path style="opacity:1" fill="#fe5721" d="M 539.5,707.5 C 543.5,707.5 547.5,707.5 551.5,707.5C 551.5,711.5 551.5,715.5 551.5,719.5C 547.5,719.5 543.5,719.5 539.5,719.5C 539.5,715.5 539.5,711.5 539.5,707.5 Z"/></g>
<g><path style="opacity:1" fill="#e43934" d="M 551.5,707.5 C 555.5,707.5 559.5,707.5 563.5,707.5C 563.5,711.5 563.5,715.5 563.5,719.5C 559.5,719.5 555.5,719.5 551.5,719.5C 551.5,715.5 551.5,711.5 551.5,707.5 Z"/></g>
<g><path style="opacity:1" fill="#fe5721" d="M 611.5,707.5 C 615.5,707.5 619.5,707.5 623.5,707.5C 623.5,711.5 623.5,715.5 623.5,719.5C 627.5,719.5 631.5,719.5 635.5,719.5C 635.5,723.5 635.5,727.5 635.5,731.5C 627.5,731.5 619.5,731.5 611.5,731.5C 611.5,727.5 611.5,723.5 611.5,719.5C 607.5,719.5 603.5,719.5 599.5,719.5C 599.5,715.5 599.5,711.5 599.5,707.5C 603.5,707.5 607.5,707.5 611.5,707.5 Z"/></g>
<g><path style="opacity:1" fill="#feeb3a" d="M 647.5,707.5 C 651.5,707.5 655.5,707.5 659.5,707.5C 659.5,711.5 659.5,715.5 659.5,719.5C 655.5,719.5 651.5,719.5 647.5,719.5C 647.5,715.5 647.5,711.5 647.5,707.5 Z"/></g>
<g><path style="opacity:1" fill="#e43934" d="M 659.5,707.5 C 663.5,707.5 667.5,707.5 671.5,707.5C 671.5,723.5 671.5,739.5 671.5,755.5C 667.5,755.5 663.5,755.5 659.5,755.5C 659.5,759.5 659.5,763.5 659.5,767.5C 655.5,767.5 651.5,767.5 647.5,767.5C 647.5,775.5 647.5,783.5 647.5,791.5C 643.5,791.5 639.5,791.5 635.5,791.5C 635.5,783.5 635.5,775.5 635.5,767.5C 627.5,767.5 619.5,767.5 611.5,767.5C 607.5,767.5 603.5,767.5 599.5,767.5C 599.5,763.5 599.5,759.5 599.5,755.5C 595.5,755.5 591.5,755.5 587.5,755.5C 587.5,747.5 587.5,739.5 587.5,731.5C 591.5,731.5 595.5,731.5 599.5,731.5C 599.5,735.5 599.5,739.5 599.5,743.5C 603.5,743.5 607.5,743.5 611.5,743.5C 611.5,747.5 611.5,751.5 611.5,755.5C 623.5,755.5 635.5,755.5 647.5,755.5C 647.5,751.5 647.5,747.5 647.5,743.5C 651.5,743.5 655.5,743.5 659.5,743.5C 659.5,735.5 659.5,727.5 659.5,719.5C 659.5,715.5 659.5,711.5 659.5,707.5 Z"/></g>
<g><path style="opacity:1" fill="#000000" d="M 671.5,707.5 C 675.5,707.5 679.5,707.5 683.5,707.5C 683.5,723.5 683.5,739.5 683.5,755.5C 679.5,755.5 675.5,755.5 671.5,755.5C 671.5,739.5 671.5,723.5 671.5,707.5 Z"/></g>
<g><path style="opacity:1" fill="#00afff" d="M 683.5,707.5 C 687.5,707.5 691.5,707.5 695.5,707.5C 695.5,723.5 695.5,739.5 695.5,755.5C 691.5,755.5 687.5,755.5 683.5,755.5C 683.5,739.5 683.5,723.5 683.5,707.5 Z"/></g>
<g><path style="opacity:1" fill="#00afff" d="M 443.5,719.5 C 443.5,735.5 443.5,751.5 443.5,767.5C 439.5,767.5 435.5,767.5 431.5,767.5C 431.5,751.5 431.5,735.5 431.5,719.5C 435.5,719.5 439.5,719.5 443.5,719.5 Z"/></g>
<g><path style="opacity:1" fill="#000000" d="M 443.5,719.5 C 447.5,719.5 451.5,719.5 455.5,719.5C 455.5,723.5 455.5,727.5 455.5,731.5C 455.5,743.5 455.5,755.5 455.5,767.5C 451.5,767.5 447.5,767.5 443.5,767.5C 443.5,751.5 443.5,735.5 443.5,719.5 Z"/></g>
<g><path style="opacity:1" fill="#fe5721" d="M 539.5,719.5 C 539.5,723.5 539.5,727.5 539.5,731.5C 531.5,731.5 523.5,731.5 515.5,731.5C 515.5,727.5 515.5,723.5 515.5,719.5C 523.5,719.5 531.5,719.5 539.5,719.5 Z"/></g>
<g><path style="opacity:1" fill="#e43934" d="M 539.5,719.5 C 543.5,719.5 547.5,719.5 551.5,719.5C 551.5,723.5 551.5,727.5 551.5,731.5C 547.5,731.5 543.5,731.5 539.5,731.5C 539.5,727.5 539.5,723.5 539.5,719.5 Z"/></g>
<g><path style="opacity:1" fill="#000000" d="M 551.5,719.5 C 555.5,719.5 559.5,719.5 563.5,719.5C 571.5,719.5 579.5,719.5 587.5,719.5C 587.5,723.5 587.5,727.5 587.5,731.5C 587.5,739.5 587.5,747.5 587.5,755.5C 583.5,755.5 579.5,755.5 575.5,755.5C 575.5,747.5 575.5,739.5 575.5,731.5C 571.5,731.5 567.5,731.5 563.5,731.5C 563.5,743.5 563.5,755.5 563.5,767.5C 559.5,767.5 555.5,767.5 551.5,767.5C 551.5,759.5 551.5,751.5 551.5,743.5C 551.5,739.5 551.5,735.5 551.5,731.5C 551.5,727.5 551.5,723.5 551.5,719.5 Z"/></g>
<g><path style="opacity:1" fill="#e43934" d="M 455.5,731.5 C 459.5,731.5 463.5,731.5 467.5,731.5C 467.5,739.5 467.5,747.5 467.5,755.5C 471.5,755.5 475.5,755.5 479.5,755.5C 479.5,759.5 479.5,763.5 479.5,767.5C 475.5,767.5 471.5,767.5 467.5,767.5C 463.5,767.5 459.5,767.5 455.5,767.5C 455.5,755.5 455.5,743.5 455.5,731.5 Z"/></g>
<g><path style="opacity:1" fill="#785547" d="M 539.5,731.5 C 543.5,731.5 547.5,731.5 551.5,731.5C 551.5,735.5 551.5,739.5 551.5,743.5C 547.5,743.5 543.5,743.5 539.5,743.5C 539.5,739.5 539.5,735.5 539.5,731.5 Z"/></g>
<g><path style="opacity:1" fill="#00afff" d="M 587.5,755.5 C 587.5,759.5 587.5,763.5 587.5,767.5C 579.5,767.5 571.5,767.5 563.5,767.5C 563.5,755.5 563.5,743.5 563.5,731.5C 567.5,731.5 571.5,731.5 575.5,731.5C 575.5,739.5 575.5,747.5 575.5,755.5C 579.5,755.5 583.5,755.5 587.5,755.5 Z"/></g>
<g><path style="opacity:1" fill="#e43934" d="M 491.5,743.5 C 495.5,743.5 499.5,743.5 503.5,743.5C 503.5,747.5 503.5,751.5 503.5,755.5C 499.5,755.5 495.5,755.5 491.5,755.5C 491.5,751.5 491.5,747.5 491.5,743.5 Z"/></g>
<g><path style="opacity:1" fill="#e43934" d="M 539.5,743.5 C 543.5,743.5 547.5,743.5 551.5,743.5C 551.5,751.5 551.5,759.5 551.5,767.5C 543.5,767.5 535.5,767.5 527.5,767.5C 527.5,763.5 527.5,759.5 527.5,755.5C 531.5,755.5 535.5,755.5 539.5,755.5C 539.5,751.5 539.5,747.5 539.5,743.5 Z"/></g>
<g><path style="opacity:1" fill="#000000" d="M 587.5,755.5 C 591.5,755.5 595.5,755.5 599.5,755.5C 599.5,759.5 599.5,763.5 599.5,767.5C 595.5,767.5 591.5,767.5 587.5,767.5C 587.5,763.5 587.5,759.5 587.5,755.5 Z"/></g>
<g><path style="opacity:1" fill="#000000" d="M 671.5,755.5 C 671.5,759.5 671.5,763.5 671.5,767.5C 667.5,767.5 663.5,767.5 659.5,767.5C 659.5,763.5 659.5,759.5 659.5,755.5C 663.5,755.5 667.5,755.5 671.5,755.5 Z"/></g>
<g><path style="opacity:1" fill="#00afff" d="M 671.5,755.5 C 675.5,755.5 679.5,755.5 683.5,755.5C 683.5,759.5 683.5,763.5 683.5,767.5C 679.5,767.5 675.5,767.5 671.5,767.5C 671.5,763.5 671.5,759.5 671.5,755.5 Z"/></g>
<g><path style="opacity:1" fill="#00afff" d="M 443.5,767.5 C 447.5,767.5 451.5,767.5 455.5,767.5C 455.5,779.5 455.5,791.5 455.5,803.5C 451.5,803.5 447.5,803.5 443.5,803.5C 443.5,791.5 443.5,779.5 443.5,767.5 Z"/></g>
<g><path style="opacity:1" fill="#000000" d="M 455.5,767.5 C 459.5,767.5 463.5,767.5 467.5,767.5C 467.5,775.5 467.5,783.5 467.5,791.5C 467.5,795.5 467.5,799.5 467.5,803.5C 463.5,803.5 459.5,803.5 455.5,803.5C 455.5,791.5 455.5,779.5 455.5,767.5 Z"/></g>
<g><path style="opacity:1" fill="#3f51b5" d="M 467.5,767.5 C 471.5,767.5 475.5,767.5 479.5,767.5C 479.5,775.5 479.5,783.5 479.5,791.5C 475.5,791.5 471.5,791.5 467.5,791.5C 467.5,783.5 467.5,775.5 467.5,767.5 Z"/></g>
<g><path style="opacity:1" fill="#e43934" d="M 479.5,767.5 C 495.5,767.5 511.5,767.5 527.5,767.5C 527.5,771.5 527.5,775.5 527.5,779.5C 519.5,779.5 511.5,779.5 503.5,779.5C 499.5,779.5 495.5,779.5 491.5,779.5C 491.5,783.5 491.5,787.5 491.5,791.5C 487.5,791.5 483.5,791.5 479.5,791.5C 479.5,783.5 479.5,775.5 479.5,767.5 Z"/></g>
<g><path style="opacity:1" fill="#000000" d="M 527.5,767.5 C 535.5,767.5 543.5,767.5 551.5,767.5C 551.5,771.5 551.5,775.5 551.5,779.5C 543.5,779.5 535.5,779.5 527.5,779.5C 527.5,775.5 527.5,771.5 527.5,767.5 Z"/></g>
<g><path style="opacity:1" fill="#00afff" d="M 551.5,767.5 C 555.5,767.5 559.5,767.5 563.5,767.5C 563.5,771.5 563.5,775.5 563.5,779.5C 559.5,779.5 555.5,779.5 551.5,779.5C 551.5,775.5 551.5,771.5 551.5,767.5 Z"/></g>
<g><path style="opacity:1" fill="#00afff" d="M 587.5,767.5 C 591.5,767.5 595.5,767.5 599.5,767.5C 599.5,775.5 599.5,783.5 599.5,791.5C 595.5,791.5 591.5,791.5 587.5,791.5C 587.5,783.5 587.5,775.5 587.5,767.5 Z"/></g>
<g><path style="opacity:1" fill="#000000" d="M 599.5,767.5 C 603.5,767.5 607.5,767.5 611.5,767.5C 611.5,775.5 611.5,783.5 611.5,791.5C 607.5,791.5 603.5,791.5 599.5,791.5C 599.5,783.5 599.5,775.5 599.5,767.5 Z"/></g>
<g><path style="opacity:1" fill="#3f51b5" d="M 611.5,767.5 C 619.5,767.5 627.5,767.5 635.5,767.5C 635.5,775.5 635.5,783.5 635.5,791.5C 635.5,795.5 635.5,799.5 635.5,803.5C 631.5,803.5 627.5,803.5 623.5,803.5C 623.5,799.5 623.5,795.5 623.5,791.5C 619.5,791.5 615.5,791.5 611.5,791.5C 611.5,783.5 611.5,775.5 611.5,767.5 Z"/></g>
<g><path style="opacity:1" fill="#000000" d="M 659.5,767.5 C 659.5,775.5 659.5,783.5 659.5,791.5C 655.5,791.5 651.5,791.5 647.5,791.5C 647.5,783.5 647.5,775.5 647.5,767.5C 651.5,767.5 655.5,767.5 659.5,767.5 Z"/></g>
<g><path style="opacity:1" fill="#00afff" d="M 659.5,767.5 C 663.5,767.5 667.5,767.5 671.5,767.5C 671.5,775.5 671.5,783.5 671.5,791.5C 667.5,791.5 663.5,791.5 659.5,791.5C 659.5,783.5 659.5,775.5 659.5,767.5 Z"/></g>
<g><path style="opacity:1" fill="#3f51b5" d="M 503.5,779.5 C 503.5,783.5 503.5,787.5 503.5,791.5C 499.5,791.5 495.5,791.5 491.5,791.5C 491.5,787.5 491.5,783.5 491.5,779.5C 495.5,779.5 499.5,779.5 503.5,779.5 Z"/></g>
<g><path style="opacity:1" fill="#000000" d="M 503.5,779.5 C 511.5,779.5 519.5,779.5 527.5,779.5C 527.5,783.5 527.5,787.5 527.5,791.5C 519.5,791.5 511.5,791.5 503.5,791.5C 503.5,787.5 503.5,783.5 503.5,779.5 Z"/></g>
<g><path style="opacity:1" fill="#00afff" d="M 527.5,779.5 C 535.5,779.5 543.5,779.5 551.5,779.5C 551.5,783.5 551.5,787.5 551.5,791.5C 543.5,791.5 535.5,791.5 527.5,791.5C 527.5,787.5 527.5,783.5 527.5,779.5 Z"/></g>
<g><path style="opacity:1" fill="#e43934" d="M 467.5,791.5 C 471.5,791.5 475.5,791.5 479.5,791.5C 479.5,795.5 479.5,799.5 479.5,803.5C 479.5,807.5 479.5,811.5 479.5,815.5C 475.5,815.5 471.5,815.5 467.5,815.5C 467.5,811.5 467.5,807.5 467.5,803.5C 467.5,799.5 467.5,795.5 467.5,791.5 Z"/></g>
<g><path style="opacity:1" fill="#3f51b5" d="M 479.5,791.5 C 483.5,791.5 487.5,791.5 491.5,791.5C 491.5,795.5 491.5,799.5 491.5,803.5C 487.5,803.5 483.5,803.5 479.5,803.5C 479.5,799.5 479.5,795.5 479.5,791.5 Z"/></g>
<g><path style="opacity:1" fill="#000000" d="M 491.5,791.5 C 495.5,791.5 499.5,791.5 503.5,791.5C 503.5,795.5 503.5,799.5 503.5,803.5C 499.5,803.5 495.5,803.5 491.5,803.5C 491.5,799.5 491.5,795.5 491.5,791.5 Z"/></g>
<g><path style="opacity:1" fill="#00afff" d="M 503.5,791.5 C 511.5,791.5 519.5,791.5 527.5,791.5C 527.5,795.5 527.5,799.5 527.5,803.5C 519.5,803.5 511.5,803.5 503.5,803.5C 503.5,799.5 503.5,795.5 503.5,791.5 Z"/></g>
<g><path style="opacity:1" fill="#00afff" d="M 599.5,791.5 C 603.5,791.5 607.5,791.5 611.5,791.5C 611.5,811.5 611.5,831.5 611.5,851.5C 635.5,851.5 659.5,851.5 683.5,851.5C 683.5,843.5 683.5,835.5 683.5,827.5C 687.5,827.5 691.5,827.5 695.5,827.5C 695.5,839.5 695.5,851.5 695.5,863.5C 663.5,863.5 631.5,863.5 599.5,863.5C 599.5,839.5 599.5,815.5 599.5,791.5 Z"/></g>
<g><path style="opacity:1" fill="#000000" d="M 611.5,791.5 C 615.5,791.5 619.5,791.5 623.5,791.5C 623.5,795.5 623.5,799.5 623.5,803.5C 623.5,807.5 623.5,811.5 623.5,815.5C 623.5,823.5 623.5,831.5 623.5,839.5C 631.5,839.5 639.5,839.5 647.5,839.5C 655.5,839.5 663.5,839.5 671.5,839.5C 671.5,835.5 671.5,831.5 671.5,827.5C 675.5,827.5 679.5,827.5 683.5,827.5C 683.5,835.5 683.5,843.5 683.5,851.5C 659.5,851.5 635.5,851.5 611.5,851.5C 611.5,831.5 611.5,811.5 611.5,791.5 Z"/></g>
<g><path style="opacity:1" fill="#000000" d="M 635.5,791.5 C 639.5,791.5 643.5,791.5 647.5,791.5C 647.5,799.5 647.5,807.5 647.5,815.5C 643.5,815.5 639.5,815.5 635.5,815.5C 635.5,811.5 635.5,807.5 635.5,803.5C 635.5,799.5 635.5,795.5 635.5,791.5 Z"/></g>
<g><path style="opacity:1" fill="#00afff" d="M 647.5,791.5 C 651.5,791.5 655.5,791.5 659.5,791.5C 659.5,795.5 659.5,799.5 659.5,803.5C 663.5,803.5 667.5,803.5 671.5,803.5C 671.5,807.5 671.5,811.5 671.5,815.5C 663.5,815.5 655.5,815.5 647.5,815.5C 647.5,807.5 647.5,799.5 647.5,791.5 Z"/></g>
<g><path style="opacity:1" fill="#00afff" d="M 443.5,803.5 C 443.5,815.5 443.5,827.5 443.5,839.5C 439.5,839.5 435.5,839.5 431.5,839.5C 431.5,827.5 431.5,815.5 431.5,803.5C 435.5,803.5 439.5,803.5 443.5,803.5 Z"/></g>
<g><path style="opacity:1" fill="#000000" d="M 443.5,803.5 C 447.5,803.5 451.5,803.5 455.5,803.5C 455.5,807.5 455.5,811.5 455.5,815.5C 455.5,819.5 455.5,823.5 455.5,827.5C 455.5,831.5 455.5,835.5 455.5,839.5C 451.5,839.5 447.5,839.5 443.5,839.5C 443.5,827.5 443.5,815.5 443.5,803.5 Z"/></g>
<g><path style="opacity:1" fill="#3f51b5" d="M 455.5,803.5 C 459.5,803.5 463.5,803.5 467.5,803.5C 467.5,807.5 467.5,811.5 467.5,815.5C 463.5,815.5 459.5,815.5 455.5,815.5C 455.5,811.5 455.5,807.5 455.5,803.5 Z"/></g>
<g><path style="opacity:1" fill="#000000" d="M 479.5,803.5 C 483.5,803.5 487.5,803.5 491.5,803.5C 491.5,811.5 491.5,819.5 491.5,827.5C 487.5,827.5 483.5,827.5 479.5,827.5C 479.5,823.5 479.5,819.5 479.5,815.5C 479.5,811.5 479.5,807.5 479.5,803.5 Z"/></g>
<g><path style="opacity:1" fill="#00afff" d="M 491.5,803.5 C 495.5,803.5 499.5,803.5 503.5,803.5C 503.5,811.5 503.5,819.5 503.5,827.5C 499.5,827.5 495.5,827.5 491.5,827.5C 491.5,819.5 491.5,811.5 491.5,803.5 Z"/></g>
<g><path style="opacity:1" fill="#feeb3a" d="M 623.5,803.5 C 627.5,803.5 631.5,803.5 635.5,803.5C 635.5,807.5 635.5,811.5 635.5,815.5C 631.5,815.5 627.5,815.5 623.5,815.5C 623.5,811.5 623.5,807.5 623.5,803.5 Z"/></g>
<g><path style="opacity:1" fill="#feeb3a" d="M 455.5,815.5 C 459.5,815.5 463.5,815.5 467.5,815.5C 471.5,815.5 475.5,815.5 479.5,815.5C 479.5,819.5 479.5,823.5 479.5,827.5C 475.5,827.5 471.5,827.5 467.5,827.5C 463.5,827.5 459.5,827.5 455.5,827.5C 455.5,823.5 455.5,819.5 455.5,815.5 Z"/></g>
<g><path style="opacity:1" fill="#3f51b5" d="M 623.5,815.5 C 627.5,815.5 631.5,815.5 635.5,815.5C 635.5,819.5 635.5,823.5 635.5,827.5C 639.5,827.5 643.5,827.5 647.5,827.5C 647.5,831.5 647.5,835.5 647.5,839.5C 639.5,839.5 631.5,839.5 623.5,839.5C 623.5,831.5 623.5,823.5 623.5,815.5 Z"/></g>
<g><path style="opacity:1" fill="#e43934" d="M 635.5,815.5 C 639.5,815.5 643.5,815.5 647.5,815.5C 647.5,819.5 647.5,823.5 647.5,827.5C 643.5,827.5 639.5,827.5 635.5,827.5C 635.5,823.5 635.5,819.5 635.5,815.5 Z"/></g>
<g><path style="opacity:1" fill="#000000" d="M 647.5,815.5 C 655.5,815.5 663.5,815.5 671.5,815.5C 671.5,819.5 671.5,823.5 671.5,827.5C 663.5,827.5 655.5,827.5 647.5,827.5C 647.5,823.5 647.5,819.5 647.5,815.5 Z"/></g>
<g><path style="opacity:1" fill="#00afff" d="M 671.5,815.5 C 675.5,815.5 679.5,815.5 683.5,815.5C 683.5,819.5 683.5,823.5 683.5,827.5C 679.5,827.5 675.5,827.5 671.5,827.5C 671.5,823.5 671.5,819.5 671.5,815.5 Z"/></g>
<g><path style="opacity:1" fill="#e43934" d="M 455.5,827.5 C 459.5,827.5 463.5,827.5 467.5,827.5C 467.5,831.5 467.5,835.5 467.5,839.5C 463.5,839.5 459.5,839.5 455.5,839.5C 455.5,835.5 455.5,831.5 455.5,827.5 Z"/></g>
<g><path style="opacity:1" fill="#000000" d="M 467.5,827.5 C 471.5,827.5 475.5,827.5 479.5,827.5C 479.5,839.5 479.5,851.5 479.5,863.5C 463.5,863.5 447.5,863.5 431.5,863.5C 431.5,855.5 431.5,847.5 431.5,839.5C 435.5,839.5 439.5,839.5 443.5,839.5C 443.5,843.5 443.5,847.5 443.5,851.5C 447.5,851.5 451.5,851.5 455.5,851.5C 459.5,851.5 463.5,851.5 467.5,851.5C 467.5,847.5 467.5,843.5 467.5,839.5C 467.5,835.5 467.5,831.5 467.5,827.5 Z"/></g>
<g><path style="opacity:1" fill="#00afff" d="M 479.5,827.5 C 483.5,827.5 487.5,827.5 491.5,827.5C 491.5,843.5 491.5,859.5 491.5,875.5C 467.5,875.5 443.5,875.5 419.5,875.5C 419.5,863.5 419.5,851.5 419.5,839.5C 423.5,839.5 427.5,839.5 431.5,839.5C 431.5,847.5 431.5,855.5 431.5,863.5C 447.5,863.5 463.5,863.5 479.5,863.5C 479.5,851.5 479.5,839.5 479.5,827.5 Z"/></g>
<g><path style="opacity:1" fill="#e43934" d="M 647.5,827.5 C 655.5,827.5 663.5,827.5 671.5,827.5C 671.5,831.5 671.5,835.5 671.5,839.5C 663.5,839.5 655.5,839.5 647.5,839.5C 647.5,835.5 647.5,831.5 647.5,827.5 Z"/></g>
<g><path style="opacity:1" fill="#e43934" d="M 443.5,839.5 C 447.5,839.5 451.5,839.5 455.5,839.5C 455.5,843.5 455.5,847.5 455.5,851.5C 451.5,851.5 447.5,851.5 443.5,851.5C 443.5,847.5 443.5,843.5 443.5,839.5 Z"/></g>
<g><path style="opacity:1" fill="#3f51b5" d="M 455.5,839.5 C 459.5,839.5 463.5,839.5 467.5,839.5C 467.5,843.5 467.5,847.5 467.5,851.5C 463.5,851.5 459.5,851.5 455.5,851.5C 455.5,847.5 455.5,843.5 455.5,839.5 Z"/></g>
</svg>
